<?xml version="1.0" encoding="UTF-8"?>
<svg version="1.1" xmlns="http://www.w3.org/2000/svg" width="250" height="250">
<path d="M0 0 C82.5 0 165 0 250 0 C250 82.5 250 165 250 250 C167.5 250 85 250 0 250 C0 167.5 0 85 0 0 Z " fill="#000000" transform="translate(0,0)"/>
<path d="M0 0 C0.69391846 -0.00467285 1.38783691 -0.0093457 2.1027832 -0.01416016 C5.44009427 -0.00362341 8.49722998 0.09164776 11.6875 1.125 C11.6875 1.785 11.6875 2.445 11.6875 3.125 C13.1415625 2.9703125 13.1415625 2.9703125 14.625 2.8125 C19.6131789 2.80232004 23.80398099 5.11942521 27.6875 8.125 C28.38687532 9.44147119 29.05941334 10.77306458 29.6875 12.125 C31.73750871 12.93028889 31.73750871 12.93028889 33.6875 13.125 C33.6875 13.785 33.6875 14.445 33.6875 15.125 C34.3475 15.125 35.0075 15.125 35.6875 15.125 C35.6875 16.115 35.6875 17.105 35.6875 18.125 C37.1725 18.62 37.1725 18.62 38.6875 19.125 C39.1825 22.095 39.1825 22.095 39.6875 25.125 C40.3475 25.125 41.0075 25.125 41.6875 25.125 C45.81238792 30.9567381 46.65053351 36.7534951 47.5859375 43.69921875 C48.97792458 48.02819983 50.83889277 48.91023546 54.6875 51.125 C54.6875 51.785 54.6875 52.445 54.6875 53.125 C55.3475 52.795 56.0075 52.465 56.6875 52.125 C56.3575 50.475 56.0275 48.825 55.6875 47.125 C59.47767107 43.30393079 63.61150936 43.51116098 68.6875 43.3125 C69.89792969 43.23612305 69.89792969 43.23612305 71.1328125 43.15820312 C75.29194178 42.95573726 78.04819598 42.86178314 81.6875 45.125 C83.05373674 47.85747348 82.815926 50.10698902 82.6875 53.125 C81.6875 54.125 81.6875 54.125 79.46264648 54.23852539 C78.50430908 54.23328857 77.54597168 54.22805176 76.55859375 54.22265625 C75.52412109 54.21943359 74.48964844 54.21621094 73.42382812 54.21289062 C72.33521484 54.20451172 71.24660156 54.19613281 70.125 54.1875 C68.4862793 54.18073242 68.4862793 54.18073242 66.81445312 54.17382812 C64.10541505 54.16199826 61.39648401 54.14551543 58.6875 54.125 C59.31140625 55.23230469 59.9353125 56.33960938 60.578125 57.48046875 C60.92907227 58.10332764 61.28001953 58.72618652 61.64160156 59.36791992 C62.72906862 61.26856997 62.72906862 61.26856997 64.4375 63.4375 C65.6875 65.125 65.6875 65.125 65.6875 67.125 C67.3375 67.455 68.9875 67.785 70.6875 68.125 C70.6875 68.785 70.6875 69.445 70.6875 70.125 C71.80125 70.2178125 71.80125 70.2178125 72.9375 70.3125 C76.55879113 71.38242693 77.67462115 72.99385512 79.6875 76.125 C79.6875 77.115 79.6875 78.105 79.6875 79.125 C81.0075 79.125 82.3275 79.125 83.6875 79.125 C87.4036243 87.64111819 87.20320671 95.99104078 86.6875 105.125 C86.3575 105.785 86.0275 106.445 85.6875 107.125 C85.0275 107.125 84.3675 107.125 83.6875 107.125 C83.790625 107.846875 83.89375 108.56875 84 109.3125 C83.55952757 113.27675187 81.58432041 114.49765126 78.6875 117.125 C78.23375 117.82625 77.78 118.5275 77.3125 119.25 C74.93430989 121.99406551 72.00842417 122.91353097 68.6875 124.125 C66.87185547 124.90182129 66.87185547 124.90182129 65.01953125 125.69433594 C57.76747603 128.08063619 50.0450515 127.51392341 42.5 127.453125 C40.83048677 127.45006099 39.16097096 127.44818976 37.49145508 127.44744873 C34.00494482 127.44286539 30.51866806 127.42851729 27.03222656 127.40625 C22.58407761 127.37796968 18.1361118 127.36703554 13.68788147 127.3625679 C9.4168979 127.35738908 5.14595924 127.34286956 0.875 127.328125 C0.07107819 127.32624428 -0.73284363 127.32436356 -1.56112671 127.32242584 C-9.53311015 127.29832931 -17.40254576 127.25016168 -25.3125 126.125 C-25.3125 125.465 -25.3125 124.805 -25.3125 124.125 C-26.158125 124.0425 -27.00375 123.96 -27.875 123.875 C-34.74786433 122.37546596 -38.80234824 119.01810219 -43.24609375 113.80859375 C-44.3125 112.125 -44.3125 112.125 -44.3125 109.125 C-44.9725 109.125 -45.6325 109.125 -46.3125 109.125 C-51.72942602 97.9767728 -50.93528663 89.30535021 -47.87109375 77.484375 C-47.08487573 72.75607084 -47.63605545 68.8726913 -49.36328125 64.41015625 C-50.78795304 59.47950202 -50.56102289 54.66594101 -50.5 49.5625 C-50.49935547 48.53447266 -50.49871094 47.50644531 -50.49804688 46.44726562 C-50.47123707 41.85087341 -50.32818097 37.62388413 -49.3125 33.125 C-48.6525 33.125 -47.9925 33.125 -47.3125 33.125 C-46.9825 31.145 -46.6525 29.165 -46.3125 27.125 C-45.6525 27.125 -44.9925 27.125 -44.3125 27.125 C-44.456875 26.444375 -44.60125 25.76375 -44.75 25.0625 C-44.14792402 21.01998984 -42.12418844 19.60610873 -39.1875 16.90625 C-37.45391379 15.2593431 -36.06172159 13.59115611 -34.625 11.6875 C-33.861875 10.841875 -33.09875 9.99625 -32.3125 9.125 C-30.9925 9.125 -29.6725 9.125 -28.3125 9.125 C-28.3125 8.465 -28.3125 7.805 -28.3125 7.125 C-26.3325 6.465 -24.3525 5.805 -22.3125 5.125 C-22.3125 4.465 -22.3125 3.805 -22.3125 3.125 C-15.32543837 -0.25583627 -7.58908683 0.0359713 0 0 Z " fill="#211716" transform="translate(124.3125,78.875)"/>
<path d="M0 0 C0 0.66 0 1.32 0 2 C0.70125 2.165 1.4025 2.33 2.125 2.5 C7.80804235 5.46506557 10.60281285 11.11074569 13.25 16.75 C15.74577238 21.4830829 18.63092865 22.37562212 23.55859375 23.9765625 C28.16471628 25.90744907 30.57801431 29.70520931 33.1328125 33.828125 C35.25285419 39.13777897 34.83642999 46.01546571 33.3125 51.453125 C30.19809629 58.25290644 24.82668896 62.1380843 18 65 C15.22749 65.27936137 12.68532003 65.41111813 9.91845703 65.38818359 C8.73672913 65.39606903 8.73672913 65.39606903 7.53112793 65.40411377 C4.93981805 65.41726282 2.3491281 65.40859225 -0.2421875 65.3984375 C-2.0529085 65.40046011 -3.8636287 65.4033731 -5.67434692 65.40713501 C-9.46543143 65.41155181 -13.25630352 65.40514959 -17.04736328 65.39111328 C-21.89154981 65.37404627 -26.73523673 65.38385088 -31.57940483 65.40183067 C-35.3182039 65.41270686 -39.0568859 65.4092042 -42.79568863 65.4014473 C-44.58095484 65.39945461 -46.3662319 65.40187164 -48.15148544 65.40888596 C-50.65449629 65.41656107 -53.1567156 65.40481133 -55.65966797 65.38818359 C-56.38824005 65.39425629 -57.11681213 65.40032898 -57.86746216 65.40658569 C-65.94303165 65.30790543 -72.29750233 62.51688881 -78.23828125 57.04296875 C-81.08899786 53.73714883 -82.53414118 50.06630892 -84 46 C-84.33 45.34 -84.66 44.68 -85 44 C-85.76885304 34.38933706 -84.90644232 27.31873202 -78.8125 19.75 C-74.55982725 15.15422414 -69.85598192 12.95199397 -64 11 C-62.10229492 10.99755859 -62.10229492 10.99755859 -59.98046875 11.1484375 C-51.50386484 11.95515476 -51.50386484 11.95515476 -43.65625 9.5859375 C-42.2233046 7.79475575 -41.12043389 5.99710926 -40 4 C-35.58974359 0 -35.58974359 0 -32 0 C-32 -0.66 -32 -1.32 -32 -2 C-21.06675333 -5.49863894 -10.26552947 -5.29833779 0 0 Z " fill="#FDFDFC" transform="translate(168,132)"/>
<path d="M0 0 C0 0.66 0 1.32 0 2 C1.0209375 2.2784375 1.0209375 2.2784375 2.0625 2.5625 C10.3709837 6.62835372 14.85888026 14.55464511 18 23 C18.16015625 25.8671875 18.16015625 25.8671875 18 28 C17.42668945 27.97381592 16.85337891 27.94763184 16.26269531 27.9206543 C2.45209218 27.37360373 -8.61075638 27.39858167 -19.6875 36.6875 C-21.57529128 38.45022022 -22.84570648 39.69141295 -24 42 C-25.77503906 42.03867188 -25.77503906 42.03867188 -27.5859375 42.078125 C-38.94045371 42.43967259 -48.10355581 43.21561133 -57 51 C-57.66 51 -58.32 51 -59 51 C-60.59898025 45.32329903 -61.41770757 40.14431391 -61.4375 34.25 C-61.44064209 33.47011719 -61.44378418 32.69023438 -61.44702148 31.88671875 C-61.3027164 24.8440507 -59.37064849 19.18873166 -56 13 C-55.67 12.34 -55.34 11.68 -55 11 C-54.34 11 -53.68 11 -53 11 C-52.7525 10.4121875 -52.505 9.824375 -52.25 9.21875 C-47.84968949 1.40819885 -38.23984439 -2.09588254 -30.10546875 -4.578125 C-19.14836809 -6.77361085 -9.96661082 -4.24111099 0 0 Z " fill="#F8B72D" transform="translate(144,93)"/>
<path d="M0 0 C0.99 0.66 1.98 1.32 3 2 C3.22137393 4.62697064 3.28162025 7.00893964 3.1875 9.625 C3.16719727 10.68460938 3.16719727 10.68460938 3.14648438 11.765625 C3.1111104 13.51074128 3.05730221 15.25546608 3 17 C5.9254644 17.2236068 5.9254644 17.2236068 8 16 C7.80732732 26.00146358 7.80732732 26.00146358 4.625 29.9375 C3.75875 30.618125 2.8925 31.29875 2 32 C1.54625 32.70125 1.0925 33.4025 0.625 34.125 C-1.75468072 36.87078545 -4.66296852 37.70226554 -8 39 C-8.33 39.33 -8.66 39.66 -9 40 C-11.43493901 40.06502576 -13.83982921 40.06514313 -16.27368164 40.02172852 C-17.03460617 40.01212097 -17.7955307 40.00251343 -18.57951355 39.99261475 C-21.10648522 39.95950941 -23.63329015 39.91922142 -26.16015625 39.87890625 C-27.90750024 39.85461638 -29.65485048 39.83077227 -31.40220642 39.80735779 C-36.01037695 39.74440398 -40.61843742 39.67536957 -45.22650146 39.60510254 C-49.92503835 39.53452084 -54.62365353 39.46964315 -59.32226562 39.40429688 C-68.54826312 39.27513903 -77.77415444 39.13956246 -87 39 C-87 38.67 -87 38.34 -87 38 C-52.845 37.505 -52.845 37.505 -18 37 C-17.67 36.01 -17.34 35.02 -17 34 C-42.74 34 -68.48 34 -95 34 C-95 33.67 -95 33.34 -95 33 C-94.01773941 32.99857498 -93.03547882 32.99714996 -92.02345276 32.99568176 C-82.74014456 32.97897001 -73.45727237 32.93606922 -64.17419529 32.86790943 C-59.40228118 32.83370362 -54.63068506 32.80853945 -49.85864258 32.80444336 C-45.24826679 32.80014663 -40.63860752 32.77157053 -36.02845573 32.72656822 C-34.27476115 32.71363701 -32.52098063 32.70926995 -30.76724434 32.71384621 C-17.52066595 32.93128133 -17.52066595 32.93128133 -6 27 C-1.10813701 21.98270463 0.23443467 17.35070197 0.17578125 10.51757812 C0.15902344 9.74865234 0.14226562 8.97972656 0.125 8.1875 C0.11597656 7.39923828 0.10695313 6.61097656 0.09765625 5.79882812 C0.07422504 3.86575334 0.03835838 1.9328362 0 0 Z " fill="#2A2121" transform="translate(201,164)"/>
<path d="M0 0 C21.00917431 -0.39755352 21.00917431 -0.39755352 30 2 C30.495 3.485 30.495 3.485 31 5 C31.66 5 32.32 5 33 5 C33 5.66 33 6.32 33 7 C34.32 7 35.64 7 37 7 C37 5.68 37 4.36 37 3 C40.14737182 3.69941596 43.02588876 4.76078698 46 6 C46 6.66 46 7.32 46 8 C46.66 8 47.32 8 48 8 C47.67 10.31 47.34 12.62 47 15 C46.34 15 45.68 15 45 15 C45.495 17.97 45.495 17.97 46 21 C46.66 21 47.32 21 48 21 C48.66 23.97 49.32 26.94 50 30 C47.9022682 27.33726307 46.3062495 24.72353237 44.8125 21.6875 C41.87536418 16.26991717 37.55934867 11.77967433 32 9 C32 8.34 32 7.68 32 7 C31.360625 6.896875 30.72125 6.79375 30.0625 6.6875 C27 6 27 6 25.15625 5.265625 C13.12263985 0.50606278 1.40169732 2.85595022 -10.125 7.6875 C-11.07375 8.120625 -12.0225 8.55375 -13 9 C-13 8.01 -13 7.02 -13 6 C-11.75823305 5.29773859 -10.50614401 4.61370891 -9.25 3.9375 C-8.20585938 3.36322266 -8.20585938 3.36322266 -7.140625 2.77734375 C-4.63859372 1.8687594 -3.4667645 2.11663163 -1 3 C-0.67 2.01 -0.34 1.02 0 0 Z " fill="#271814" transform="translate(112,86)"/>
<path d="M0 0 C2.69082872 0.17635452 5.32851446 0.61835921 8 1 C8.98043964 3.94131891 9.11621202 5.82501665 9.09765625 8.88671875 C9.09443359 9.82451172 9.09121094 10.76230469 9.08789062 11.72851562 C9.07951172 12.70498047 9.07113281 13.68144531 9.0625 14.6875 C9.05798828 15.67556641 9.05347656 16.66363281 9.04882812 17.68164062 C9.03704303 20.12115474 9.02059011 22.56054689 9 25 C2.9453125 25.9765625 2.9453125 25.9765625 1 26 C-1 24 -1 24 -1.24291992 21.67749023 C-1.23881104 20.73075439 -1.23470215 19.78401855 -1.23046875 18.80859375 C-1.22853516 17.78185547 -1.22660156 16.75511719 -1.22460938 15.69726562 C-1.21236328 14.62154297 -1.20011719 13.54582031 -1.1875 12.4375 C-1.18685547 11.35791016 -1.18621094 10.27832031 -1.18554688 9.16601562 C-1.14014598 1.14014598 -1.14014598 1.14014598 0 0 Z " fill="#211516" transform="translate(119,44)"/>
<path d="M0 0 C2.64 0 5.28 0 8 0 C8.33 0.99 8.66 1.98 9 3 C9.78375 3.144375 10.5675 3.28875 11.375 3.4375 C14 4 14 4 16 5 C16 5.66 16 6.32 16 7 C16.763125 7.103125 17.52625 7.20625 18.3125 7.3125 C21.22117209 8.05657891 22.38010972 8.48017068 24 11 C23.57894737 15.42105263 23.57894737 15.42105263 22 17 C17.53925362 17.31121486 14.1630737 16.58593284 10 15 C10 14.34 10 13.68 10 13 C9.0925 12.731875 8.185 12.46375 7.25 12.1875 C4.27008166 11.09868368 2.31409641 10.13608899 0 8 C0 7.34 0 6.68 0 6 C-0.66 6 -1.32 6 -2 6 C-2 5.34 -2 4.68 -2 4 C-1.34 4 -0.68 4 0 4 C0 2.68 0 1.36 0 0 Z " fill="#1C1616" transform="translate(50,84)"/>
<path d="M0 0 C1.11084961 -0.00193359 1.11084961 -0.00193359 2.24414062 -0.00390625 C3.38979492 0.00189453 3.38979492 0.00189453 4.55859375 0.0078125 C5.32623047 0.00394531 6.09386719 0.00007813 6.88476562 -0.00390625 C10.17536514 0.0018315 12.85368282 0.08534219 15.99609375 1.1328125 C16.91501491 4.80849714 16.95514231 6.29661825 15.99609375 10.1328125 C8.07609375 10.1328125 0.15609375 10.1328125 -8.00390625 10.1328125 C-9.00390625 3.1328125 -9.00390625 3.1328125 -8.00390625 1.1328125 C-5.31628684 0.21823259 -2.82401483 0.00473885 0 0 Z " fill="#221717" transform="translate(48.00390625,122.8671875)"/>
<path d="M0 0 C2.64 0 5.28 0 8 0 C8.33 2.64 8.66 5.28 9 8 C6.58566069 9.51758471 4.28173129 10.88879028 1.625 11.9375 C-0.6540231 12.85996173 -2.3862762 13.87111022 -4.4375 15.1875 C-8.36248589 17.18442264 -9.86036687 17.21159994 -14 16 C-14.33 14.02 -14.66 12.04 -15 10 C-10.25 6 -10.25 6 -8 6 C-8 5.34 -8 4.68 -8 4 C-5.36 3.34 -2.72 2.68 0 2 C0 1.34 0 0.68 0 0 Z " fill="#1E1617" transform="translate(64,156)"/>
<path d="M0 0 C0.24198573 2.85543158 0.42588216 5.19759023 0 8 C-2.25 10.5 -2.25 10.5 -5 13 C-6.16481225 15.03348579 -7.14537726 17.09375451 -8.10546875 19.23046875 C-9 21 -9 21 -11 23 C-13.5 23.25 -13.5 23.25 -16 23 C-16.66 22.34 -17.32 21.68 -18 21 C-18 14.41977008 -14.92547955 9.17496907 -11 4 C-10.34 4 -9.68 4 -9 4 C-9 2.68 -9 1.36 -9 0 C-5.93109813 -1.53445094 -3.29905734 -0.54984289 0 0 Z " fill="#1D1717" transform="translate(167,56)"/>
<path d="M0 0 C2 2 2 2 2.125 4.625 C2.08375 5.40875 2.0425 6.1925 2 7 C0.68 7.33 -0.64 7.66 -2 8 C-2 8.66 -2 9.32 -2 10 C-3.32 10 -4.64 10 -6 10 C-6.20625 10.598125 -6.4125 11.19625 -6.625 11.8125 C-8.57476102 14.91439253 -10.61383854 15.69763021 -14 17 C-17.25 17.3125 -17.25 17.3125 -20 17 C-20.66 16.34 -21.32 15.68 -22 15 C-21.67028521 11.70285207 -21.3773161 10.3773161 -19 8 C-18.319375 7.855625 -17.63875 7.71125 -16.9375 7.5625 C-15.9784375 7.2840625 -15.9784375 7.2840625 -15 7 C-14.67 6.01 -14.34 5.02 -14 4 C-12.68 4 -11.36 4 -10 4 C-9.67 3.01 -9.34 2.02 -9 1 C-5.98675805 -0.50662097 -3.31713623 -0.17770373 0 0 Z " fill="#1F1718" transform="translate(194,84)"/>
<path d="M0 0 C0.33 0 0.66 0 1 0 C1.125 6.625 1.125 6.625 0 10 C1.65 10 3.3 10 5 10 C5.33 7.69 5.66 5.38 6 3 C6.33 3 6.66 3 7 3 C7.06058594 4.02480469 7.12117188 5.04960937 7.18359375 6.10546875 C7.26805026 7.46615695 7.35269567 8.82683343 7.4375 10.1875 C7.47681641 10.86103516 7.51613281 11.53457031 7.55664062 12.22851562 C8.00592005 19.31330653 8.49399683 24.49399683 13.625 29.625 C16 32 16 32 16 34 C15.34 34 14.68 34 14 34 C14 34.66 14 35.32 14 36 C14.66 36 15.32 36 16 36 C15.67 36.99 15.34 37.98 15 39 C11.88175879 37.63746417 9.95262649 36.14891747 7.75 33.5625 C7.22921875 32.96566406 6.7084375 32.36882812 6.171875 31.75390625 C5 30 5 30 5 27 C4.34 27 3.68 27 3 27 C-1.41008787 17.92388166 -2.13664859 9.88199975 0 0 Z " fill="#1C1314" transform="translate(75,161)"/>
<path d="M0 0 C0.99 0 1.98 0 3 0 C5.65396095 6.08199384 6.3014682 11.37978602 6.3125 17.9375 C6.31765625 18.69538818 6.3228125 19.45327637 6.328125 20.23413086 C6.25867269 25.74132731 6.25867269 25.74132731 4 28 C3.67 26.35 3.34 24.7 3 23 C-0.11785113 23.64644661 -0.11785113 23.64644661 -1 26 C-2.23759692 22.28720925 -2.2226397 18.80556224 -2.25 14.9375 C-2.270625 14.20466797 -2.29125 13.47183594 -2.3125 12.71679688 C-2.328125 10.58984375 -2.328125 10.58984375 -2 7 C-1.01 6.34 -0.02 5.68 1 5 C0.67 3.35 0.34 1.7 0 0 Z " fill="#1F1517" transform="translate(205,158)"/>
<path d="M0 0 C0.33 0 0.66 0 1 0 C1 1.65 1 3.3 1 5 C1.66 5 2.32 5 3 5 C5 10.625 5 10.625 5 14 C4.46632812 13.79503906 3.93265625 13.59007812 3.3828125 13.37890625 C-2.41395572 11.282843 -7.85732066 10.37189499 -14 10 C-10.93882432 7.37613513 -10.26826873 7 -6 7 C-6 6.34 -6 5.68 -6 5 C-5.34 4.67 -4.68 4.34 -4 4 C-11.41834582 3.90622877 -18.66236293 3.82597807 -26 5 C-22.46056512 2.64037675 -20.87781074 1.87325786 -16.71875 1.8671875 C-15.87699219 1.86589844 -15.03523437 1.86460938 -14.16796875 1.86328125 C-12.84732422 1.86908203 -12.84732422 1.86908203 -11.5 1.875 C-10.61957031 1.87113281 -9.73914063 1.86726563 -8.83203125 1.86328125 C-7.56939453 1.86521484 -7.56939453 1.86521484 -6.28125 1.8671875 C-5.50845703 1.86831543 -4.73566406 1.86944336 -3.93945312 1.87060547 C-2 2 -2 2 0 3 C0 2.01 0 1.02 0 0 Z " fill="#2B2321" transform="translate(162,118)"/>
<path d="M0 0 C21.00917431 -0.39755352 21.00917431 -0.39755352 30 2 C30.495 3.485 30.495 3.485 31 5 C31.66 5 32.32 5 33 5 C33.495 6.98 33.495 6.98 34 9 C33.34 9 32.68 9 32 9 C32 8.34 32 7.68 32 7 C31.360625 6.896875 30.72125 6.79375 30.0625 6.6875 C27 6 27 6 25.15625 5.265625 C13.12263985 0.50606278 1.40169732 2.85595022 -10.125 7.6875 C-11.07375 8.120625 -12.0225 8.55375 -13 9 C-13 8.01 -13 7.02 -13 6 C-11.75823305 5.29773859 -10.50614401 4.61370891 -9.25 3.9375 C-8.20585938 3.36322266 -8.20585938 3.36322266 -7.140625 2.77734375 C-4.63859372 1.8687594 -3.4667645 2.11663163 -1 3 C-0.67 2.01 -0.34 1.02 0 0 Z " fill="#402507" transform="translate(112,86)"/>
<path d="M0 0 C0 0.66 0 1.32 0 2 C0.7425 2.226875 1.485 2.45375 2.25 2.6875 C5.51139591 4.24407532 6.92894975 6.08518854 9 9 C6.525 8.505 6.525 8.505 4 8 C3.505 6.515 3.505 6.515 3 5 C-6.30746549 -1.14384422 -15.15846146 -1.97785181 -26 -2 C-27.11834229 -2.00241699 -27.11834229 -2.00241699 -28.25927734 -2.00488281 C-30.17285059 -2.00740676 -32.0864298 -2.00424766 -34 -2 C-34 -1.01 -34 -0.02 -34 1 C-36.97 0.505 -36.97 0.505 -40 0 C-29.17448294 -9.92339064 -11.88712457 -5.05835088 0 0 Z " fill="#E3B149" transform="translate(144,93)"/>
<path d="M0 0 C0.33 0.99 0.66 1.98 1 3 C-4.66387282 8.66387282 -11.01413331 8.03042479 -18.5625 8.0625 C-20.04172942 8.04673956 -21.52094768 8.02779013 -23 8 C-23.33 7.01 -23.66 6.02 -24 5 C-18.79222948 1.52815299 -13.21696647 1.86076011 -7.125 1.9375 C-6.09246094 1.94426758 -6.09246094 1.94426758 -5.0390625 1.95117188 C-3.35933665 1.96283664 -1.67965625 1.98076729 0 2 C0 1.34 0 0.68 0 0 Z " fill="#21140F" transform="translate(119,135)"/>
<path d="M0 0 C0.33 0.66 0.66 1.32 1 2 C0.67 2.99 0.34 3.98 0 5 C-0.66 5 -1.32 5 -2 5 C-2.12117188 5.81984375 -2.24234375 6.6396875 -2.3671875 7.484375 C-2.53476563 8.56203125 -2.70234375 9.6396875 -2.875 10.75 C-3.03742188 11.81734375 -3.19984375 12.8846875 -3.3671875 13.984375 C-4 17 -4 17 -5.02734375 18.91796875 C-6.11918693 21.25512703 -6.23193531 22.76452804 -6.1953125 25.328125 C-6.18886719 26.12734375 -6.18242188 26.9265625 -6.17578125 27.75 C-6.15064453 28.9875 -6.15064453 28.9875 -6.125 30.25 C-6.11146484 31.51070312 -6.11146484 31.51070312 -6.09765625 32.796875 C-6.07415817 34.86470604 -6.03828908 36.93238995 -6 39 C-5.01 39.33 -4.02 39.66 -3 40 C-3.66 40.99 -4.32 41.98 -5 43 C-5.66 43 -6.32 43 -7 43 C-8.59898025 37.32329903 -9.41770757 32.14431391 -9.4375 26.25 C-9.44064209 25.47011719 -9.44378418 24.69023438 -9.44702148 23.88671875 C-9.3027164 16.8440507 -7.37064849 11.18873166 -4 5 C-3.67 4.34 -3.34 3.68 -3 3 C-2.34 3 -1.68 3 -1 3 C-0.67 2.01 -0.34 1.02 0 0 Z " fill="#D6A23D" transform="translate(92,101)"/>
<path d="M0 0 C1.65 0 3.3 0 5 0 C5 3 5 3 3.50390625 4.53515625 C2.54291016 5.29119141 2.54291016 5.29119141 1.5625 6.0625 C-1.15875193 8.1671333 -1.15875193 8.1671333 -3 11 C-4.17175781 11.02578125 -5.34351563 11.0515625 -6.55078125 11.078125 C-15.68861378 11.37480787 -23.59361965 12.0190049 -32 16 C-31.67 14.68 -31.34 13.36 -31 12 C-30.43410156 11.86722656 -29.86820312 11.73445312 -29.28515625 11.59765625 C-28.18494141 11.33275391 -28.18494141 11.33275391 -27.0625 11.0625 C-26.33160156 10.88847656 -25.60070312 10.71445313 -24.84765625 10.53515625 C-23.00030102 10.16112431 -23.00030102 10.16112431 -22 9 C-19.30345146 8.92680379 -16.63308542 8.90757463 -13.9375 8.9375 C-12.79958008 8.94426758 -12.79958008 8.94426758 -11.63867188 8.95117188 C-9.75908129 8.9629932 -7.87953101 8.98092922 -6 9 C-6 8.34 -6 7.68 -6 7 C-4.35 6.67 -2.7 6.34 -1 6 C-0.67 4.02 -0.34 2.04 0 0 Z " fill="#E9AA40" transform="translate(123,124)"/>
<path d="M0 0 C3.31225448 1.65612724 3.76982575 4.64497931 5 8 C5.0523551 9.66584415 5.06317296 11.33453101 5 13 C4.41621582 12.97905273 3.83243164 12.95810547 3.23095703 12.93652344 C-11.88013336 12.2832748 -11.88013336 12.2832748 -26 17 C-26.66 17 -27.32 17 -28 17 C-28 16.34 -28 15.68 -28 15 C-26.68 15 -25.36 15 -24 15 C-24 14.34 -24 13.68 -24 13 C-17.7735041 10.25301651 -11.86443202 9.85260405 -5.125 9.9375 C-4.09246094 9.94426758 -4.09246094 9.94426758 -3.0390625 9.95117188 C-1.35933665 9.96283664 0.32034375 9.98076729 2 10 C1.34 6.7 0.68 3.4 0 0 Z " fill="#D7A845" transform="translate(157,108)"/>
<path d="M0 0 C2.03640924 2.42429671 3.13705455 4.37004727 4.25 7.375 C6.04432383 11.79910003 9.25969746 14.19477309 13 17 C13.804375 17.61875 14.60875 18.2375 15.4375 18.875 C15.953125 19.24625 16.46875 19.6175 17 20 C16.67 20.33 16.34 20.66 16 21 C16.66 21.66 17.32 22.32 18 23 C16.0625 22.625 16.0625 22.625 14 22 C13.67 21.34 13.34 20.68 13 20 C10.69 20.33 8.38 20.66 6 21 C5.17361624 18.10765685 5 16.11257569 5 13 C4.360625 12.7525 3.72125 12.505 3.0625 12.25 C1 11 1 11 0.1875 9.0625 C0 7 0 7 1 4 C0.34 3.67 -0.32 3.34 -1 3 C-0.67 2.01 -0.34 1.02 0 0 Z " fill="#2D2425" transform="translate(83,176)"/>
<path d="M0 0 C0 0.66 0 1.32 0 2 C-1.98 2.66 -3.96 3.32 -6 4 C-6 4.66 -6 5.32 -6 6 C-5.34 6.33 -4.68 6.66 -4 7 C-11.28571429 11.57142857 -11.28571429 11.57142857 -16 11 C-12.13479692 5.78783221 -7.03865115 0 0 0 Z " fill="#361C08" transform="translate(136,123)"/>
<path d="M0 0 C1.13598633 0.00483398 1.13598633 0.00483398 2.29492188 0.00976562 C3.47344727 0.02233398 3.47344727 0.02233398 4.67578125 0.03515625 C5.47306641 0.03966797 6.27035156 0.04417969 7.09179688 0.04882812 C9.05732382 0.06059775 11.0228121 0.07853277 12.98828125 0.09765625 C12.98828125 0.75765625 12.98828125 1.41765625 12.98828125 2.09765625 C12.36783936 2.14776855 11.74739746 2.19788086 11.1081543 2.24951172 C8.29654395 2.4816413 5.48624007 2.72699318 2.67578125 2.97265625 C1.21108398 3.09060547 1.21108398 3.09060547 -0.28320312 3.2109375 C-1.22099609 3.29472656 -2.15878906 3.37851563 -3.125 3.46484375 C-3.98907471 3.53815918 -4.85314941 3.61147461 -5.7434082 3.68701172 C-8.28336112 3.99159083 -8.28336112 3.99159083 -11.01171875 6.09765625 C-13.19921875 5.72265625 -13.19921875 5.72265625 -15.01171875 5.09765625 C-13.74216575 4.44930971 -12.47102169 3.8040781 -11.19921875 3.16015625 C-10.49152344 2.80050781 -9.78382812 2.44085938 -9.0546875 2.0703125 C-5.92447262 0.58001899 -3.4266356 -0.02576418 0 0 Z " fill="#381E01" transform="translate(106.01171875,134.90234375)"/>
<path d="M0 0 C0.66 0.66 1.32 1.32 2 2 C1.67 2.66 1.34 3.32 1 4 C1.66 4.33 2.32 4.66 3 5 C2.67 6.32 2.34 7.64 2 9 C-3.28 8.67 -8.56 8.34 -14 8 C-9.57615894 4.68211921 -9.57615894 4.68211921 -5.875 4.5625 C-4.59625 4.376875 -3.3175 4.19125 -2 4 C-0.4100567 2.07935207 -0.4100567 2.07935207 0 0 Z " fill="#2F2420" transform="translate(120,135)"/>
<path d="M0 0 C1 3 1 3 0 6 C-0.08178114 7.70016844 -0.10749501 9.40336297 -0.09765625 11.10546875 C-0.09443359 12.08837891 -0.09121094 13.07128906 -0.08789062 14.08398438 C-0.07951172 15.10814453 -0.07113281 16.13230469 -0.0625 17.1875 C-0.05798828 18.22326172 -0.05347656 19.25902344 -0.04882812 20.32617188 C-0.0370401 22.88417266 -0.02058515 25.44205733 0 28 C-2.01171875 26.4921875 -2.01171875 26.4921875 -4 24 C-4.15782726 21.19484373 -4.11314922 18.87884575 -3.8125 16.125 C-3.75513672 15.43019531 -3.69777344 14.73539063 -3.63867188 14.01953125 C-3.28464479 9.97677035 -2.7196575 5.99253465 -2 2 C-1.34 2 -0.68 2 0 2 C0 1.34 0 0.68 0 0 Z " fill="#59380C" transform="translate(84,112)"/>
<path d="M0 0 C2.1640625 0.2421875 2.1640625 0.2421875 4.625 0.875 C5.85089844 1.18050781 5.85089844 1.18050781 7.1015625 1.4921875 C8.04128906 1.74355469 8.04128906 1.74355469 9 2 C6.65123533 3.56584311 4.45454353 4.82514963 1.9375 6.0625 C1.24527344 6.40410156 0.55304688 6.74570313 -0.16015625 7.09765625 C-0.76730469 7.39542969 -1.37445313 7.69320312 -2 8 C-2.99 8.495 -2.99 8.495 -4 9 C-4.66 8.67 -5.32 8.34 -6 8 C-6 7.34 -6 6.68 -6 6 C-5.34 6 -4.68 6 -4 6 C-3.71125 5.38125 -3.4225 4.7625 -3.125 4.125 C-2 2 -2 2 0 0 Z " fill="#252120" transform="translate(95,141)"/>
<path d="M0 0 C1.58206057 0.00667536 3.16410534 0.0186375 4.74609375 0.03515625 C5.55240234 0.03966797 6.35871094 0.04417969 7.18945312 0.04882812 C9.18753131 0.06065107 11.18557158 0.07858711 13.18359375 0.09765625 C13.18359375 0.42765625 13.18359375 0.75765625 13.18359375 1.09765625 C12.15621094 1.195625 11.12882812 1.29359375 10.0703125 1.39453125 C1.59858851 2.28144046 -5.93457237 3.65770333 -13.81640625 7.09765625 C-13.48640625 5.77765625 -13.15640625 4.45765625 -12.81640625 3.09765625 C-12.25050781 2.96488281 -11.68460937 2.83210937 -11.1015625 2.6953125 C-10.00134766 2.43041016 -10.00134766 2.43041016 -8.87890625 2.16015625 C-8.14800781 1.98613281 -7.41710937 1.81210938 -6.6640625 1.6328125 C-1.12618138 0.02881733 -1.12618138 0.02881733 0 0 Z " fill="#EEB74C" transform="translate(104.81640625,132.90234375)"/>
<path d="M0 0 C2 2 2 2 2.1875 5.0625 C2 8 2 8 1 9 C-0.70772358 9.08713831 -2.41898649 9.10700007 -4.12890625 9.09765625 C-5.68061523 9.09282227 -5.68061523 9.09282227 -7.26367188 9.08789062 C-8.35228516 9.07951172 -9.44089844 9.07113281 -10.5625 9.0625 C-12.2012207 9.05573242 -12.2012207 9.05573242 -13.87304688 9.04882812 C-16.58208495 9.03699826 -19.29101599 9.02051543 -22 9 C-22.33 9.66 -22.66 10.32 -23 11 C-23.66 10.01 -24.32 9.02 -25 8 C-21.91538494 6.97179498 -20.10314761 6.95417151 -16.89453125 7.12109375 C-15.91162109 7.16943359 -14.92871094 7.21777344 -13.91601562 7.26757812 C-12.37977539 7.35168945 -12.37977539 7.35168945 -10.8125 7.4375 C-9.77673828 7.48970703 -8.74097656 7.54191406 -7.67382812 7.59570312 C-5.11557951 7.72538393 -2.55772062 7.86034978 0 8 C0 5.36 0 2.72 0 0 Z " fill="#16100F" transform="translate(205,124)"/>
<path d="M0 0 C2.64 0 5.28 0 8 0 C8 0.66 8 1.32 8 2 C7.34 2 6.68 2 6 2 C6.33 3.98 6.66 5.96 7 8 C7.66 8 8.32 8 9 8 C9.66 10.97 10.32 13.94 11 17 C8.33249036 13.58806906 6.31689746 10.02906448 4.28125 6.21875 C3.00120081 4.00207946 1.57520266 2.0147941 0 0 Z " fill="#3C2308" transform="translate(151,99)"/>
<path d="M0 0 C0.33 0 0.66 0 1 0 C1 1.65 1 3.3 1 5 C0.01 5.33 -0.98 5.66 -2 6 C-2 5.34 -2 4.68 -2 4 C-14.04161576 3.7914181 -14.04161576 3.7914181 -26 5 C-22.46056512 2.64037675 -20.87781074 1.87325786 -16.71875 1.8671875 C-15.87699219 1.86589844 -15.03523437 1.86460938 -14.16796875 1.86328125 C-12.84732422 1.86908203 -12.84732422 1.86908203 -11.5 1.875 C-10.61957031 1.87113281 -9.73914063 1.86726563 -8.83203125 1.86328125 C-7.56939453 1.86521484 -7.56939453 1.86521484 -6.28125 1.8671875 C-5.50845703 1.86831543 -4.73566406 1.86944336 -3.93945312 1.87060547 C-2 2 -2 2 0 3 C0 2.01 0 1.02 0 0 Z " fill="#4E3109" transform="translate(162,118)"/>
<path d="M0 0 C3.99996286 1.33332095 4.83782337 3.4957827 7 7 C3.75791433 6.64950425 2.38472296 6.43778819 0.1875 3.9375 C-0.4003125 2.9784375 -0.4003125 2.9784375 -1 2 C-0.67 1.34 -0.34 0.68 0 0 Z M-6 5 C0.625 5.75 0.625 5.75 4 8 C1.25 8.75 1.25 8.75 -2 9 C-4.375 7.0625 -4.375 7.0625 -6 5 Z " fill="#28211F" transform="translate(176,129)"/>
<path d="M0 0 C0.33 0 0.66 0 1 0 C1.66 6.6 2.32 13.2 3 20 C3.99 20.33 4.98 20.66 6 21 C5.34 21.99 4.68 22.98 4 24 C3.34 24 2.68 24 2 24 C-0.63537118 16.09388645 -0.17981101 8.23134837 0 0 Z " fill="#DCAD4F" transform="translate(83,120)"/>
<path d="M0 0 C2.31 0.33 4.62 0.66 7 1 C6.38722388 3.96175123 5.74627478 5.38058783 4 8 C3.01 7.67 2.02 7.34 1 7 C1 5.68 1 4.36 1 3 C0.67 2.01 0.34 1.02 0 0 Z " fill="#24181A" transform="translate(120,134)"/>
<path d="M0 0 C0.66 0.33 1.32 0.66 2 1 C2 1.99 2 2.98 2 4 C0.54618103 4.69699552 -0.91322953 5.38233866 -2.375 6.0625 C-3.18710938 6.44535156 -3.99921875 6.82820313 -4.8359375 7.22265625 C-5.55007812 7.47917969 -6.26421875 7.73570313 -7 8 C-7.66 7.67 -8.32 7.34 -9 7 C-6.03 4.69 -3.06 2.38 0 0 Z " fill="#D9A13F" transform="translate(102,93)"/>
<path d="M0 0 C-0.49371094 0.40992187 -0.98742187 0.81984375 -1.49609375 1.2421875 C-2.13675781 1.78101562 -2.77742188 2.31984375 -3.4375 2.875 C-4.07558594 3.40867187 -4.71367188 3.94234375 -5.37109375 4.4921875 C-7.10805004 5.9222757 -7.10805004 5.9222757 -8 8 C-8.66 8 -9.32 8 -10 8 C-10 6.35 -10 4.7 -10 3 C-3.375 -1.125 -3.375 -1.125 0 0 Z " fill="#3A1906" transform="translate(99,96)"/>
<path d="M0 0 C0.99 0 1.98 0 3 0 C3 0.66 3 1.32 3 2 C3.7425 2.226875 4.485 2.45375 5.25 2.6875 C8.51139591 4.24407532 9.92894975 6.08518854 12 9 C10.35 8.67 8.7 8.34 7 8 C6.67 7.01 6.34 6.02 6 5 C2.49705129 3.28432339 2.49705129 3.28432339 -1 2 C-0.67 1.34 -0.34 0.68 0 0 Z " fill="#D6A942" transform="translate(141,93)"/>
<path d="M0 0 C0.99 0 1.98 0 3 0 C5.09230769 4.43076923 5.09230769 4.43076923 4.625 7.3125 C4.41875 7.869375 4.2125 8.42625 4 9 C4 8.01 4 7.02 4 6 C3.34 6 2.68 6 2 6 C1.34 7.32 0.68 8.64 0 10 C-0.66 9.01 -1.32 8.02 -2 7 C-1.01 6.34 -0.02 5.68 1 5 C0.67 3.35 0.34 1.7 0 0 Z " fill="#191112" transform="translate(205,158)"/>
<path d="M0 0 C-0.66 1.65 -1.32 3.3 -2 5 C-5.96 5 -9.92 5 -14 5 C-14 4.67 -14 4.34 -14 4 C-9.545 3.505 -9.545 3.505 -5 3 C-5 2.34 -5 1.68 -5 1 C-2 0 -2 0 0 0 Z " fill="#C89B41" transform="translate(122,130)"/>
<path d="M0 0 C2.875 -0.1875 2.875 -0.1875 6 0 C6.66 0.99 7.32 1.98 8 3 C7.01 3.33 6.02 3.66 5 4 C5 4.66 5 5.32 5 6 C4.01 6 3.02 6 2 6 C1.34 4.02 0.68 2.04 0 0 Z " fill="#2D201E" transform="translate(139,123)"/>
<path d="M0 0 C-1.56020867 0.65134925 -3.12328579 1.29582964 -4.6875 1.9375 C-5.55761719 2.29714844 -6.42773438 2.65679687 -7.32421875 3.02734375 C-9.88179265 3.9570312 -12.3221323 4.54162625 -15 5 C-12.86699672 2.63442627 -11.04050601 1.37032472 -8.0625 0.25 C-7.39347656 -0.01296875 -6.72445312 -0.2759375 -6.03515625 -0.546875 C-3.68352509 -1.07046274 -2.26382477 -0.74954377 0 0 Z " fill="#543208" transform="translate(106,136)"/>
<path d="M0 0 C0.66 0.33 1.32 0.66 2 1 C1.01 2.485 1.01 2.485 0 4 C0.33 4.66 0.66 5.32 1 6 C-1.31 6.33 -3.62 6.66 -6 7 C-4.02 4.69 -2.04 2.38 0 0 Z " fill="#45280C" transform="translate(126,127)"/>
<path d="M0 0 C4 4.625 4 4.625 4 8 C4.66 8.33 5.32 8.66 6 9 C5.01 9 4.02 9 3 9 C2.67 7.68 2.34 6.36 2 5 C1.01 5 0.02 5 -1 5 C-0.67 3.35 -0.34 1.7 0 0 Z " fill="#261A1C" transform="translate(80,182)"/>
<path d="M0 0 C2.4375 0.75 2.4375 0.75 5 2 C5.8125 4.125 5.8125 4.125 6 6 C5.01 6.33 4.02 6.66 3 7 C0 2.25 0 2.25 0 0 Z " fill="#3C3535" transform="translate(178,142)"/>
<path d="M0 0 C-3.63 1.32 -7.26 2.64 -11 4 C-10.67 2.68 -10.34 1.36 -10 0 C-6.05523353 -0.80688405 -4.00001715 -1.00000429 0 0 Z " fill="#DCAB49" transform="translate(102,136)"/>
<path d="M0 0 C1.09898702 3.29696105 0.87124444 4.40494903 0.0625 7.6875 C-0.22947266 8.89986328 -0.22947266 8.89986328 -0.52734375 10.13671875 C-0.68332031 10.75160156 -0.83929688 11.36648437 -1 12 C-3.13181214 8.25712373 -2.95685425 6.21015871 -2 2 C-1.34 2 -0.68 2 0 2 C0 1.34 0 0.68 0 0 Z " fill="#422405" transform="translate(84,112)"/>
<path d="M0 0 C0.33 0 0.66 0 1 0 C1 1.98 1 3.96 1 6 C-1.64 5.01 -4.28 4.02 -7 3 C-3 2 -3 2 -1 3 C-0.67 2.01 -0.34 1.02 0 0 Z " fill="#403A37" transform="translate(194,152)"/>
<path d="M0 0 C0.66 0.66 1.32 1.32 2 2 C-0.31 4.31 -2.62 6.62 -5 9 C-5 4.61031544 -2.87194899 3.23094261 0 0 Z " fill="#0C0606" transform="translate(206,191)"/>
<path d="M0 0 C1.485 0.99 1.485 0.99 3 2 C2.67 5.3 2.34 8.6 2 12 C1.67 12 1.34 12 1 12 C0.67 8.04 0.34 4.08 0 0 Z " fill="#494242" transform="translate(201,164)"/>
<path d="M0 0 C0.33 1.32 0.66 2.64 1 4 C2.32 3.01 3.64 2.02 5 1 C5.66 1.33 6.32 1.66 7 2 C7 2.66 7 3.32 7 4 C4.69 4.33 2.38 4.66 0 5 C0 3.35 0 1.7 0 0 Z " fill="#462C08" transform="translate(84,140)"/>
</svg>
