<?xml version="1.0" encoding="UTF-8"?>
<svg version="1.1" xmlns="http://www.w3.org/2000/svg" width="500" height="500">
<path d="M0 0 C165 0 330 0 500 0 C500 165 500 330 500 500 C335 500 170 500 0 500 C0 335 0 170 0 0 Z " fill="#000000" transform="translate(0,0)"/>
<path d="M0 0 C1.97695603 0.40673036 3.95592958 0.80388121 5.9375 1.1875 C6.73027344 1.34605469 7.52304687 1.50460938 8.33984375 1.66796875 C9.16162109 1.83232422 9.16162109 1.83232422 10 2 C10.33 2.99 10.66 3.98 11 5 C14.51190809 6.22969878 14.51190809 6.22969878 18 7 C18 7.66 18 8.32 18 9 C18.56203125 9.11214844 19.1240625 9.22429687 19.703125 9.33984375 C22.31513108 10.09057339 24.39471322 11.21167376 26.75 12.5625 C27.94882812 13.24505859 27.94882812 13.24505859 29.171875 13.94140625 C29.77515625 14.29074219 30.3784375 14.64007813 31 15 C31 15.99 31 16.98 31 18 C31.639375 18.103125 32.27875 18.20625 32.9375 18.3125 C33.618125 18.539375 34.29875 18.76625 35 19 C35.33 19.99 35.66 20.98 36 22 C36.7425 22.0825 37.485 22.165 38.25 22.25 C41.54302595 23.14809799 42.85976788 24.38416074 45 27 C45 27.66 45 28.32 45 29 C45.99 29.33 46.98 29.66 48 30 C52 35.37142857 52 35.37142857 52 38 C52.66 38 53.32 38 54 38 C56.74375671 40.95481492 57 41.77471908 57 46 C57.66 46 58.32 46 59 46 C59.99 49.96 59.99 49.96 61 54 C61.66 54 62.32 54 63 54 C63 55.32 63 56.64 63 58 C63.66 58 64.32 58 65 58 C67.2160202 63.50591012 68.71911718 68.71516111 69.6875 74.5625 C69.81705078 75.27857422 69.94660156 75.99464844 70.08007812 76.73242188 C70.85166173 81.21903768 71.12558684 85.4489723 71 90 C71.57363281 90.10570312 72.14726562 90.21140625 72.73828125 90.3203125 C75.3472552 91.10435648 77.017048 92.23799868 79.1875 93.875 C79.88230469 94.38804687 80.57710937 94.90109375 81.29296875 95.4296875 C83 97 83 97 84 100 C85.31403276 100.70394612 86.6520257 101.36345658 88 102 C91.20610541 104.34593079 93.95744601 106.55990907 96 110 C96 111.32 96 112.64 96 114 C96.598125 114.185625 97.19625 114.37125 97.8125 114.5625 C100.97762717 116.64244071 101.7025846 119.60133574 103 123 C104.68118903 127.26493311 104.68118903 127.26493311 108 130 C108 130.66 108 131.32 108 132 C108.556875 132.17015625 109.11375 132.3403125 109.6875 132.515625 C117.01195959 134.84163582 123.76275196 137.15845411 129 143 C129.66 143.33 130.32 143.66 131 144 C131 144.66 131 145.32 131 146 C131.99 146.33 132.98 146.66 134 147 C134 147.99 134 148.98 134 150 C134.66 150 135.32 150 136 150 C136 150.66 136 151.32 136 152 C136.99 152 137.98 152 139 152 C140.0044134 154.2898234 141.00367612 156.5816599 142 158.875 C142.28617187 159.52597656 142.57234375 160.17695313 142.8671875 160.84765625 C145 165.7734375 145 165.7734375 145 168 C145.66 168 146.32 168 147 168 C148.79206816 175.40933505 149.33653471 182.45310991 149.3125 190.0625 C149.32861328 191.08666016 149.34472656 192.11082031 149.36132812 193.16601562 C149.3654762 199.65774537 148.50030094 204.99757493 146 211 C145.34 211 144.68 211 144 211 C143.67 212.65 143.34 214.3 143 216 C142.34 216 141.68 216 141 216 C140.87625 216.5775 140.7525 217.155 140.625 217.75 C139.99351176 220.02335767 139.11141809 221.9253529 138 224 C137.34 224 136.68 224 136 224 C136 224.99 136 225.98 136 227 C132.73862363 230.74099054 129.12010154 233.28447853 125 236 C124.67 236.66 124.34 237.32 124 238 C122.36328125 238.9296875 122.36328125 238.9296875 120.3125 239.875 C117.73479397 241.06625055 115.62290748 242.27656784 113.31838989 243.9667511 C109.75877835 246.14780169 106.66310607 247.09014296 102.60498047 247.72729492 C101.84056578 247.84918529 101.07615108 247.97107565 100.28857231 248.09665966 C87.8171296 249.82531234 75.12820435 249.41694167 62.5634675 249.37004495 C58.7505542 249.35854802 54.93765106 249.3628519 51.12472534 249.36479187 C44.72519492 249.3656694 38.32577151 249.35471071 31.92626953 249.33618164 C24.58379852 249.31504066 17.24148413 249.31150365 9.89898884 249.3177436 C2.76668286 249.323489 -4.36556936 249.31773016 -11.49786758 249.30657005 C-14.50130356 249.30199007 -17.50470592 249.30102093 -20.50814438 249.3031559 C-77.56369139 249.32679138 -77.56369139 249.32679138 -94.80078125 234.4453125 C-96 233 -96 233 -96 231 C-97.32 231 -98.64 231 -100 231 C-101.71245697 229.08572834 -103.12421327 227.29035767 -104.5625 225.1875 C-107.36202893 221.10849895 -107.36202893 221.10849895 -110.62109375 217.40625 C-120.00097739 207.840363 -122.25688895 190.46966924 -122.17578125 177.85742188 C-122.15064453 176.35018555 -122.15064453 176.35018555 -122.125 174.8125 C-122.11146484 173.24145508 -122.11146484 173.24145508 -122.09765625 171.63867188 C-122.07440075 169.09219486 -122.04172569 166.54622969 -122 164 C-121.34 164 -120.68 164 -120 164 C-119.67 160.7 -119.34 157.4 -119 154 C-118.34 154 -117.68 154 -117 154 C-116.87625 153.071875 -116.7525 152.14375 -116.625 151.1875 C-116 148 -116 148 -114 145 C-113.29009626 140.74057753 -114.21298983 138.37758461 -116.375 134.8125 C-120.22932266 128.35951221 -121.14711068 121.4357764 -121 114 C-121.66 114 -122.32 114 -123 114 C-125.1211249 99.08370229 -124.45889858 84.64548277 -121 70 C-120.78730469 69.08734375 -120.57460937 68.1746875 -120.35546875 67.234375 C-119.92987269 65.48300128 -119.47116047 63.73966943 -119 62 C-118.34 62 -117.68 62 -117 62 C-117.05671875 61.13375 -117.1134375 60.2675 -117.171875 59.375 C-116.78863897 51.84963789 -111.59062892 43.90223719 -107 38 C-106.34 38 -105.68 38 -105 38 C-104.938125 37.46375 -104.87625 36.9275 -104.8125 36.375 C-103.59964736 32.82973843 -101.55389074 30.7407608 -99 28 C-98.34 28 -97.68 28 -97 28 C-96.67 26.68 -96.34 25.36 -96 24 C-95.01 24 -94.02 24 -93 24 C-93 23.34 -93 22.68 -93 22 C-92.360625 21.71125 -91.72125 21.4225 -91.0625 21.125 C-88.84793921 20.17176549 -88.84793921 20.17176549 -88 18 C-87.34 18 -86.68 18 -86 18 C-86 17.01 -86 16.02 -86 15 C-84.02 14.67 -82.04 14.34 -80 14 C-80 13.34 -80 12.68 -80 12 C-77.71070947 10.82845707 -75.41881638 9.66261926 -73.125 8.5 C-72.14853516 7.99919922 -72.14853516 7.99919922 -71.15234375 7.48828125 C-66.2265625 5 -66.2265625 5 -64 5 C-64 4.34 -64 3.68 -64 3 C-61.36 2.67 -58.72 2.34 -56 2 C-56 1.34 -56 0.68 -56 0 C-37.18774789 -3.94564089 -18.73859144 -4.69610177 0 0 Z " fill="#231817" transform="translate(272,162)"/>
<path d="M0 0 C1.67726171 1.35790692 3.32413198 2.7542653 4.9375 4.1875 C6.22527344 5.29544922 6.22527344 5.29544922 7.5390625 6.42578125 C15.57312211 13.84090274 21.71039803 22.94011877 24.3125 33.625 C25.27960545 36.30080297 26.10270864 37.74569173 28.64892578 39.09326172 C31.65811963 40.31266898 34.71666613 41.34378531 37.79711914 42.3671875 C47.95970729 45.91301265 56.97994076 53.61664119 62.08203125 63.234375 C62.36433594 63.87890625 62.64664063 64.5234375 62.9375 65.1875 C63.25074219 65.87328125 63.56398438 66.5590625 63.88671875 67.265625 C67.80009531 77.67768571 67.56233612 90.32513872 63.5625 100.625 C57.9280409 111.99923519 49.47877631 119.95809739 37.9375 125.1875 C33.18621792 126.74479149 29.0815154 127.43936417 24.08879089 127.44819641 C23.4364972 127.45202196 22.78420351 127.45584751 22.11214334 127.45978898 C19.94601599 127.47003356 17.78015796 127.46614327 15.61401367 127.4621582 C14.05286923 127.46650948 12.49172693 127.47169402 10.93058777 127.47764587 C6.70316875 127.49100397 2.47583931 127.49161799 -1.75159669 127.48908257 C-5.28763471 127.48801047 -8.82365478 127.49290248 -12.35968894 127.497688 C-20.70668462 127.50877266 -29.05363529 127.50922678 -37.40063477 127.50317383 C-45.99448107 127.49713739 -54.58816351 127.50943905 -63.18198186 127.5307439 C-70.57501 127.54839394 -77.96798615 127.5543558 -85.36103457 127.55110615 C-89.77000459 127.54929821 -94.17885778 127.55188029 -98.58780861 127.56582069 C-102.73704031 127.57844954 -106.88601784 127.57640744 -111.0352459 127.56340981 C-112.55169386 127.56105525 -114.06815999 127.56373819 -115.5845871 127.57203293 C-129.52146512 127.64272534 -143.36311885 125.23614004 -154.046875 115.3515625 C-155.46515314 113.67740943 -156.75813259 111.95049982 -158.0625 110.1875 C-159.00415849 109.23325249 -159.96164354 108.294246 -160.9375 107.375 C-163.0625 105.1875 -163.0625 105.1875 -163.0625 103.1875 C-163.7225 103.1875 -164.3825 103.1875 -165.0625 103.1875 C-173.27217285 89.10450388 -175.21350492 73.31440889 -171.5 57.5 C-169.4589051 50.537116 -166.40239224 44.96753585 -162.0625 39.1875 C-161.57007813 38.52492188 -161.07765625 37.86234375 -160.5703125 37.1796875 C-159.25 35.5 -159.25 35.5 -157.0625 33.1875 C-156.4025 33.1875 -155.7425 33.1875 -155.0625 33.1875 C-155.0625 32.5275 -155.0625 31.8675 -155.0625 31.1875 C-140.42470088 20.11931147 -125.09321668 17.70571927 -107.0625 19.1875 C-105.5775 19.6825 -105.5775 19.6825 -104.0625 20.1875 C-99.96940699 21.06184261 -99.96940699 21.06184261 -96.0625 20.1875 C-92.30749397 16.86049618 -89.25348479 13.04479156 -86.0625 9.1875 C-63.46309329 -14.37504733 -27.18812982 -18.64437394 0 0 Z " fill="#FEFEFE" transform="translate(339.0625,266.8125)"/>
<path d="M0 0 C0.78246094 0.33515625 1.56492187 0.6703125 2.37109375 1.015625 C22.77899027 10.28897318 36.36286142 27.06775442 44.375 47.5078125 C46.04105497 52.21673174 47.07929351 55.99877039 47 61 C46.34153076 60.85997559 45.68306152 60.71995117 45.00463867 60.57568359 C22.53631224 56.10297794 0.11405535 58.82676814 -20 70 C-23.58346286 72.42811311 -26.7953565 75.09745782 -30 78 C-31.29077718 79.06358042 -32.58236483 80.12617849 -33.875 81.1875 C-35.93538976 82.90104023 -37.20595999 84.30976218 -38.71240234 86.57543945 C-41 89 -41 89 -43.86230469 89.48828125 C-44.95446289 89.43027344 -46.04662109 89.37226563 -47.171875 89.3125 C-48.38633301 89.27012207 -49.60079102 89.22774414 -50.85205078 89.18408203 C-52.78153564 89.09296143 -52.78153564 89.09296143 -54.75 89 C-72.88893654 88.56966014 -87.74214236 92.04179682 -102 104 C-102.66 104 -103.32 104 -104 104 C-104.33 104.99 -104.66 105.98 -105 107 C-105.66 107 -106.32 107 -107 107 C-107.81822733 104.62683882 -108.62968707 102.2517058 -109.4375 99.875 C-109.66759766 99.20984375 -109.89769531 98.5446875 -110.13476562 97.859375 C-116.18032433 79.98554926 -115.038087 57.35367831 -106.82421875 40.30859375 C-102.31671416 31.5388115 -97.17021396 23.83642814 -90 17 C-89.23171875 16.23558594 -88.4634375 15.47117188 -87.671875 14.68359375 C-64.54826707 -7.35842607 -29.09268138 -13.7728646 0 0 Z " fill="#F8B62D" transform="translate(278,182)"/>
<path d="M0 0 C3.06758675 1.04576821 4.47239278 2.01986813 6.015625 4.88671875 C6.69127005 6.4230069 7.34108532 7.97083658 7.96875 9.52734375 C10.1669956 14.79813717 13.08272262 19.73549194 16.3125 24.4375 C18 27 18 27 18 29 C18.66 29 19.32 29 20 29 C20 30.32 20 31.64 20 33 C20.66 33 21.32 33 22 33 C22.30615 36.90341251 22.33014743 39.36721742 20.5 42.875 C17.22689312 45.65714084 14.27098702 46.32532909 10 46 C7.16398293 45.06357927 6.17256133 44.26019719 4.5078125 41.75 C4.05148438 40.8425 3.59515625 39.935 3.125 39 C0.69435355 34.29910508 -1.90831872 29.78178872 -4.703125 25.2890625 C-6.04735218 22.91642055 -7.04017269 20.54980211 -8 18 C-8.37125 17.071875 -8.7425 16.14375 -9.125 15.1875 C-9.558125 14.1046875 -9.558125 14.1046875 -10 13 C-10.66 13 -11.32 13 -12 13 C-12.61189802 5.04532578 -12.61189802 5.04532578 -10.5 1.4375 C-6.99666415 -0.57691811 -3.88988279 -0.60561049 0 0 Z " fill="#1F1717" transform="translate(170,111)"/>
<path d="M0 0 C2.875 0.125 2.875 0.125 4.875 1.125 C4.875 1.785 4.875 2.445 4.875 3.125 C5.535 3.125 6.195 3.125 6.875 3.125 C8.48727876 6.34955753 8.34400928 9.628749 7.875 13.125 C6.78083902 15.94401736 5.4212608 18.52949079 3.875 21.125 C3.215 21.125 2.555 21.125 1.875 21.125 C1.875 21.785 1.875 22.445 1.875 23.125 C1.215 23.455 0.555 23.785 -0.125 24.125 C-1.25206706 26.23515954 -1.25206706 26.23515954 -2.25 28.6875 C-2.60320312 29.51378906 -2.95640625 30.34007812 -3.3203125 31.19140625 C-3.58585937 31.82949219 -3.85140625 32.46757812 -4.125 33.125 C-4.785 33.125 -5.445 33.125 -6.125 33.125 C-6.125 34.445 -6.125 35.765 -6.125 37.125 C-6.785 37.125 -7.445 37.125 -8.125 37.125 C-8.41375 38.23875 -8.7025 39.3525 -9 40.5 C-10.125 44.125 -10.125 44.125 -12.125 46.125 C-16.96441768 46.68034301 -19.03855714 46.84929524 -23.125 44.125 C-25.87061602 40.00657597 -25.66867526 38.01807732 -25.125 33.125 C-24.125 30.625 -24.125 30.625 -23.125 29.125 C-22.465 29.125 -21.805 29.125 -21.125 29.125 C-21.125 27.805 -21.125 26.485 -21.125 25.125 C-20.135 25.125 -19.145 25.125 -18.125 25.125 C-18.08375 24.17625 -18.0425 23.2275 -18 22.25 C-17.36612107 17.71179429 -15.11126377 14.37366412 -12.67578125 10.56640625 C-11.32422454 8.43864065 -10.15339256 6.30035729 -9 4.0625 C-7.125 1.125 -7.125 1.125 -5.25 0.1875 C-3.4996412 0.13601886 -1.7497165 0.06998866 0 0 Z " fill="#1F1716" transform="translate(325.125,110.875)"/>
<path d="M0 0 C1.39538254 -0.05472088 2.79140897 -0.09311538 4.1875 -0.125 C4.96480469 -0.14820312 5.74210938 -0.17140625 6.54296875 -0.1953125 C9.343866 0.02733434 11.42374468 0.91545843 14 2 C14.09888089 8.19298642 14.17147486 14.38551332 14.21972656 20.57910156 C14.23984126 22.68595382 14.26713667 24.79275025 14.30175781 26.89941406 C14.35028168 29.92787447 14.37297016 32.95559678 14.390625 35.984375 C14.41127014 36.92617615 14.43191528 37.86797729 14.45318604 38.83831787 C14.45542877 45.3752963 14.45542877 45.3752963 12.10498047 48.59936523 C8.59935647 50.93197541 6.13708435 50.33363583 2 50 C1.34 49.67 0.68 49.34 0 49 C0 48.34 0 47.68 0 47 C-0.99 46.67 -1.98 46.34 -3 46 C-3.02473065 40.37663086 -3.04287459 34.75329343 -3.05493164 29.12988281 C-3.05995841 27.21711679 -3.06678077 25.3043546 -3.07543945 23.39160156 C-3.08757748 20.6412664 -3.0932449 17.89098207 -3.09765625 15.140625 C-3.10281754 14.28631897 -3.10797882 13.43201294 -3.11329651 12.55181885 C-3.11337204 11.75129089 -3.11344757 10.95076294 -3.11352539 10.12597656 C-3.115746 9.42426331 -3.11796661 8.72255005 -3.12025452 7.99957275 C-2.9936281 5.89404912 -2.57320021 4.02592372 -2 2 C-1.34 2 -0.68 2 0 2 C0 1.34 0 0.68 0 0 Z " fill="#201716" transform="translate(240,90)"/>
<path d="M0 0 C0.91007812 0.10183594 1.82015625 0.20367187 2.7578125 0.30859375 C3.45648438 0.39238281 4.15515625 0.47617187 4.875 0.5625 C6.87285435 4.6830746 7.05335515 8.01444365 6.875 12.5625 C5.555 12.8925 4.235 13.2225 2.875 13.5625 C2.875 14.2225 2.875 14.8825 2.875 15.5625 C0.26126111 18.10156064 -1.25389581 19.48506852 -4.9375 19.8125 C-5.659375 19.73 -6.38125 19.6475 -7.125 19.5625 C-7.455 20.5525 -7.785 21.5425 -8.125 22.5625 C-10.40730887 23.9254645 -12.61187694 25.10837231 -15 26.25 C-15.63808594 26.57033203 -16.27617188 26.89066406 -16.93359375 27.22070312 C-19.84376144 28.64540944 -21.84497964 29.5625 -25.125 29.5625 C-25.125 30.2225 -25.125 30.8825 -25.125 31.5625 C-28.35062656 33.17531328 -31.63682363 33.14156485 -35.125 32.5625 C-37.625 30.6875 -37.625 30.6875 -39.125 27.5625 C-39.4330206 24.19994182 -39.36024404 20.9277967 -39.125 17.5625 C-37.5017313 16.8916288 -35.87632422 16.22592971 -34.25 15.5625 C-33.34507813 15.19125 -32.44015625 14.82 -31.5078125 14.4375 C-29.125 13.5625 -29.125 13.5625 -27.125 13.5625 C-26.795 12.5725 -26.465 11.5825 -26.125 10.5625 C-23.52257586 8.91429805 -22.26251221 8.5625 -19.125 8.5625 C-19.125 7.9025 -19.125 7.2425 -19.125 6.5625 C-17.145 6.2325 -15.165 5.9025 -13.125 5.5625 C-13.125 4.9025 -13.125 4.2425 -13.125 3.5625 C-11.145 3.2325 -9.165 2.9025 -7.125 2.5625 C-7.125 1.9025 -7.125 1.2425 -7.125 0.5625 C-4.50184968 -0.74907516 -2.89466564 -0.33399988 0 0 Z " fill="#211717" transform="translate(139.125,311.4375)"/>
<path d="M0 0 C1.79240663 0.11389875 3.58394835 0.24147687 5.375 0.375 C6.87160156 0.47941406 6.87160156 0.47941406 8.3984375 0.5859375 C11 1 11 1 13 3 C13.57631954 11.93295292 13.57631954 11.93295292 11 15 C8.375 15.75 8.375 15.75 6 16 C5.505 17.485 5.505 17.485 5 19 C3.01276732 19.70381157 1.01222047 20.3711811 -1 21 C-1.33 21.66 -1.66 22.32 -2 23 C-2.7425 23.103125 -3.485 23.20625 -4.25 23.3125 C-7.94724524 24.23681131 -9.44532202 26.24363691 -12 29 C-15 31 -15 31 -19 31 C-19 31.66 -19 32.32 -19 33 C-20.258125 33.185625 -21.51625 33.37125 -22.8125 33.5625 C-23.87404297 33.71912109 -23.87404297 33.71912109 -24.95703125 33.87890625 C-27 34 -27 34 -30 33 C-32.07712709 29.81012625 -33.01568396 27.76851402 -32.9375 23.9375 C-31.84301062 20.50809994 -30.54157415 18.54157415 -28 16 C-25.75 15.1875 -25.75 15.1875 -24 15 C-24 14.34 -24 13.68 -24 13 C-23.28972656 12.81824219 -22.57945312 12.63648438 -21.84765625 12.44921875 C-20.92855469 12.19785156 -20.00945312 11.94648438 -19.0625 11.6875 C-17.68771484 11.32205078 -17.68771484 11.32205078 -16.28515625 10.94921875 C-15.53105469 10.63597656 -14.77695312 10.32273438 -14 10 C-13.67 9.01 -13.34 8.02 -13 7 C-10.49609375 6.05078125 -10.49609375 6.05078125 -7.4375 5.3125 C-5.91962891 4.93544922 -5.91962891 4.93544922 -4.37109375 4.55078125 C-3.58863281 4.36902344 -2.80617188 4.18726563 -2 4 C-2 3.34 -2 2.68 -2 2 C-1.34 2 -0.68 2 0 2 C0 1.34 0 0.68 0 0 Z " fill="#1F1716" transform="translate(378,169)"/>
<path d="M0 0 C0.9170874 -0.00241196 1.8341748 -0.00482391 2.77905273 -0.00730896 C4.71570159 -0.00633058 6.65237844 0.00706082 8.58886719 0.03198242 C11.55239916 0.06628932 14.51294899 0.0526423 17.4765625 0.03320312 C19.35938769 0.04010172 21.24220518 0.04977422 23.125 0.0625 C24.01050537 0.05754013 24.89601074 0.05258026 25.80834961 0.04747009 C31.94032904 0.16479874 31.94032904 0.16479874 35.12353516 2.53930664 C37.42140231 5.87616531 37.10689647 8.73006681 36.5625 12.62890625 C35.55374788 15.43900144 35.22854583 16.29588333 32.5625 17.62890625 C29.61966833 17.74036296 26.70123495 17.79303087 23.7578125 17.796875 C22.44452469 17.8018676 22.44452469 17.8018676 21.10470581 17.80696106 C19.25031053 17.81202895 17.39590611 17.81436943 15.54150391 17.81420898 C12.7059013 17.81639208 9.8706898 17.83453978 7.03515625 17.85351562 C5.23437633 17.85645025 3.43359456 17.85843458 1.6328125 17.859375 C0.78478058 17.86656052 -0.06325134 17.87374603 -0.9369812 17.88114929 C-1.73105377 17.87807266 -2.52512634 17.87499603 -3.34326172 17.87182617 C-4.03894257 17.87325119 -4.73462341 17.87467621 -5.4513855 17.87614441 C-7.84772843 17.57783965 -9.39401792 16.91059094 -11.4375 15.62890625 C-13.9290904 11.89152065 -13.89543285 10.05559042 -13.4375 5.62890625 C-10.18716492 -0.46381144 -6.24820942 -0.09355117 0 0 Z " fill="#211717" transform="translate(375.4375,247.37109375)"/>
<path d="M0 0 C5.78408559 -0.0494009 11.56804864 -0.08572 17.35229492 -0.10986328 C19.32041564 -0.11992707 21.28852138 -0.13357934 23.2565918 -0.15087891 C26.08385918 -0.17511059 28.91092905 -0.18647923 31.73828125 -0.1953125 C32.61962234 -0.20563507 33.50096344 -0.21595764 34.40901184 -0.22659302 C35.22963608 -0.22674408 36.05026031 -0.22689514 36.89575195 -0.22705078 C37.61745071 -0.231492 38.33914948 -0.23593323 39.0827179 -0.24050903 C41 0 41 0 44 2 C45.1407563 7.26502908 45.4311977 11.01604471 43 16 C40.2900686 16.90331047 38.7252603 17.12628885 35.94335938 17.12939453 C34.72694763 17.13412277 34.72694763 17.13412277 33.48596191 17.13894653 C32.61403198 17.1369223 31.74210205 17.13489807 30.84375 17.1328125 C29.94507202 17.13376923 29.04639404 17.13472595 28.1204834 17.13571167 C26.22078379 17.13639205 24.32108185 17.13454766 22.42138672 17.13037109 C19.51134018 17.12502085 16.60144798 17.13032089 13.69140625 17.13671875 C11.84635383 17.13605794 10.0013015 17.13477673 8.15625 17.1328125 C7.28432007 17.13483673 6.41239014 17.13686096 5.51403809 17.13894653 C4.70309692 17.13579437 3.89215576 17.13264221 3.05664062 17.12939453 C2.34399048 17.12859894 1.63134033 17.12780334 0.89709473 17.12698364 C-1 17 -1 17 -4 16 C-4.19658808 14.58456585 -4.38187546 13.16755969 -4.5625 11.75 C-4.66691406 10.96109375 -4.77132812 10.1721875 -4.87890625 9.359375 C-5.00027349 6.99467126 -4.69633257 5.2488963 -4 3 C-2.68 2.67 -1.36 2.34 0 2 C0 1.34 0 0.68 0 0 Z " fill="#211717" transform="translate(84,248)"/>
<path d="M0 0 C1.70196405 1.2879728 3.36345179 2.62986661 5 4 C7.83090536 5.07293789 10.67723096 5.99688733 13.57421875 6.875 C16 8 16 8 17.33203125 10.125 C17.55246094 10.74375 17.77289063 11.3625 18 12 C19.32 12 20.64 12 22 12 C22 12.66 22 13.32 22 14 C22.61488281 14.15855469 23.22976562 14.31710938 23.86328125 14.48046875 C30.44827586 16.38140021 30.44827586 16.38140021 33.0625 19.3125 C34.12751805 22.36555173 34.22405348 24.78856685 34 28 C33.34 28 32.68 28 32 28 C32 28.99 32 29.98 32 31 C29.16295172 32.96411035 27.13175924 34.17368582 23.6328125 33.63671875 C21.27321667 32.90170088 19.15058025 32.22243509 17 31 C16.67 30.01 16.34 29.02 16 28 C14.02034701 27.27514244 12.01407231 26.62286209 10 26 C7.16352802 24.71322384 4.3973816 23.29377756 1.625 21.875 C0.52091797 21.31619141 0.52091797 21.31619141 -0.60546875 20.74609375 C-2.40550358 19.8343878 -4.20301402 18.91770068 -6 18 C-6 17.34 -6 16.68 -6 16 C-7.32 15.67 -8.64 15.34 -10 15 C-10 14.01 -10 13.02 -10 12 C-10.66 12 -11.32 12 -12 12 C-12.48 4.8 -12.48 4.8 -10.5 1.5 C-7.03082118 -0.58150729 -3.89101495 -0.78765485 0 0 Z " fill="#201717" transform="translate(112,169)"/>
<path d="M0 0 C-0.99 0 -1.98 0 -3 0 C-2.67 0.99 -2.34 1.98 -2 3 C-5.52480447 4.09193451 -8.76388687 4.10872605 -12.44134521 4.08229065 C-13.08588063 4.07906152 -13.73041605 4.07583239 -14.39448285 4.07250541 C-16.55178642 4.06045221 -18.70896137 4.04107495 -20.86621094 4.02172852 C-22.41357648 4.0115834 -23.96094504 4.00188998 -25.50831604 3.99261475 C-29.70840002 3.96615704 -33.90841371 3.93337276 -38.10844326 3.89946485 C-42.49799084 3.86509878 -46.88757605 3.83653409 -51.27716064 3.80735779 C-59.58918777 3.75122668 -67.90116777 3.68986736 -76.21314359 3.62663645 C-85.67614837 3.55490348 -95.13919086 3.48898861 -104.60224104 3.42356598 C-124.06820981 3.28885782 -143.5341191 3.14683174 -163 3 C-163 2.01 -163 1.02 -163 0 C-142.3380993 -0.15388408 -121.67616409 -0.30191786 -101.0141716 -0.4429636 C-91.42072108 -0.50858853 -81.82729126 -0.5761367 -72.23388672 -0.64819336 C-63.87347983 -0.71098404 -55.51305661 -0.77018569 -47.15259385 -0.82505554 C-42.72472877 -0.85424162 -38.29689292 -0.8852398 -33.86907196 -0.92053413 C-29.70282259 -0.95368681 -25.53656827 -0.98204628 -21.37026024 -1.00670624 C-19.83999824 -1.01661292 -18.30974649 -1.02828111 -16.77951241 -1.04183006 C-14.69209792 -1.06005047 -12.60473924 -1.07196329 -10.51727295 -1.08229065 C-8.76402269 -1.09473485 -8.76402269 -1.09473485 -6.97535324 -1.10743046 C-4.45081287 -1.01627741 -2.39837725 -0.74519709 0 0 Z " fill="#373231" transform="translate(374,394)"/>
<path d="M0 0 C1.01715334 2.65208694 1.05938595 3.8223845 0.14453125 6.55859375 C-0.29503906 7.50863281 -0.73460937 8.45867187 -1.1875 9.4375 C-9.91768313 29.72664068 -10.11659077 47.18397199 -3 68 C-0.525 67.505 -0.525 67.505 2 67 C2 66.34 2 65.68 2 65 C5 63 5 63 7.1875 63.375 C7.785625 63.58125 8.38375 63.7875 9 64 C7.71283353 65.00578589 6.42011342 66.00446798 5.125 67 C4.40570313 67.556875 3.68640625 68.11375 2.9453125 68.6875 C1 70 1 70 -1 70 C-1.33 70.99 -1.66 71.98 -2 73 C-2.66 73 -3.32 73 -4 73 C-4.81822733 70.62683882 -5.62968707 68.2517058 -6.4375 65.875 C-6.66759766 65.20984375 -6.89769531 64.5446875 -7.13476562 63.859375 C-12.99899251 46.52166072 -12.07101946 24.20816916 -4.3984375 7.515625 C-3.01854048 4.93894526 -1.58875136 2.45197294 0 0 Z " fill="#DDAC4C" transform="translate(175,216)"/>
<path d="M0 0 C1.32 0 2.64 0 4 0 C2.94124926 3.40312738 1.99097846 6.01353231 0 9 C-5.48253538 24.14700469 -4.40474778 40.16035113 -4 56 C-8.7878333 51.2121667 -7.2438305 42.0748385 -7.25537109 35.73852539 C-7.1559859 25.48247872 -5.97811855 15.53749762 -2 6 C-1.65939189 4.33480481 -1.32441604 2.66842534 -1 1 C-0.67 0.67 -0.34 0.34 0 0 Z " fill="#402302" transform="translate(170,218)"/>
<path d="M0 0 C2.15155142 3.22732713 3.3073296 6.2302158 4.625 9.875 C5.07101562 11.08929688 5.51703125 12.30359375 5.9765625 13.5546875 C6.90197334 16.67000186 7.08935218 18.80855838 7 22 C6.34153076 21.85925049 5.68306152 21.71850098 5.00463867 21.57348633 C-1.95259993 20.18424278 -8.60067109 19.65054131 -15.6875 19.6875 C-17.24210937 19.68943359 -17.24210937 19.68943359 -18.828125 19.69140625 C-27.49569233 19.79881105 -35.58800347 20.92174203 -44 23 C-43.505 21.515 -43.505 21.515 -43 20 C-41.865625 19.855625 -40.73125 19.71125 -39.5625 19.5625 C-36.19222799 19.38828522 -36.19222799 19.38828522 -35 18 C-32.1883662 17.91138008 -29.40141745 17.88477645 -26.58984375 17.90234375 C-25.74780899 17.9037587 -24.90577423 17.90517365 -24.03822327 17.90663147 C-21.33794665 17.91224737 -18.63775172 17.92480252 -15.9375 17.9375 C-14.11132932 17.94251295 -12.28515734 17.94707621 -10.45898438 17.95117188 C-5.97262458 17.96222196 -1.48632616 17.97949721 3 18 C2.51163938 14.31749698 1.96785929 10.88845282 0.9375 7.3125 C0 4 0 4 0 0 Z " fill="#DCAD4C" transform="translate(318,221)"/>
<path d="M0 0 C1.57974609 0.00773437 1.57974609 0.00773437 3.19140625 0.015625 C7.81892665 0.06254536 12.09649187 0.23095804 16.625 1.25 C16.625 1.58 16.625 1.91 16.625 2.25 C15.42746094 2.22679687 14.22992188 2.20359375 12.99609375 2.1796875 C-6.58751203 1.41509279 -6.58751203 1.41509279 -24.4453125 8.12890625 C-26.72905995 9.45569879 -28.78810801 9.79697636 -31.375 10.25 C-32.055625 10.62125 -32.73625 10.9925 -33.4375 11.375 C-35.86300568 12.47038966 -36.88725609 11.98442752 -39.375 11.25 C-36.94380624 9.96576841 -34.50602702 8.69789199 -32.0625 7.4375 C-31.39154297 7.08107422 -30.72058594 6.72464844 -30.02929688 6.35742188 C-20.19822317 1.32649683 -10.98083799 -0.21989162 0 0 Z " fill="#462806" transform="translate(220.375,269.75)"/>
<path d="M0 0 C1.30179199 -0.01933594 1.30179199 -0.01933594 2.62988281 -0.0390625 C7.07770158 -0.04596102 10.58360758 0.08364757 14.625 2.1875 C14.625 2.5175 14.625 2.8475 14.625 3.1875 C13.43293945 3.14822388 13.43293945 3.14822388 12.21679688 3.1081543 C-4.21490183 2.63837136 -18.69198587 2.25569615 -33.66015625 9.85546875 C-36.375 11.1875 -36.375 11.1875 -38.375 11.1875 C-38.375 10.5275 -38.375 9.8675 -38.375 9.1875 C-36.67599815 8.17172665 -34.96529549 7.1755102 -33.25 6.1875 C-32.29867187 5.630625 -31.34734375 5.07375 -30.3671875 4.5 C-27.10984878 3.07119346 -24.8912171 2.93708691 -21.375 3.1875 C-21.375 2.5275 -21.375 1.8675 -21.375 1.1875 C-14.2611772 0.27379799 -7.16325725 0.05196414 0 0 Z " fill="#E0AF48" transform="translate(222.375,267.8125)"/>
<path d="M0 0 C0 0.33 0 0.66 0 1 C-0.64106689 0.9285376 -1.28213379 0.8570752 -1.94262695 0.78344727 C-9.37792675 0.02298114 -16.71791282 -0.11938614 -24.1875 -0.0625 C-25.33025391 -0.05798828 -26.47300781 -0.05347656 -27.65039062 -0.04882812 C-30.4336511 -0.03718268 -33.21679572 -0.02082997 -36 0 C-36 0.66 -36 1.32 -36 2 C-35.34 2.33 -34.68 2.66 -34 3 C-37.42122186 5.07717042 -37.42122186 5.07717042 -39.875 4.75 C-40.57625 4.5025 -41.2775 4.255 -42 4 C-43.0725 3.649375 -44.145 3.29875 -45.25 2.9375 C-46.1575 2.628125 -47.065 2.31875 -48 2 C-33.73831727 -6.31931493 -15.22177379 -3.24525126 0 0 Z " fill="#DDA942" transform="translate(268,178)"/>
<path d="M0 0 C-0.33 1.32 -0.66 2.64 -1 4 C-2.98 4 -4.96 4 -7 4 C-7 4.66 -7 5.32 -7 6 C-8.41478135 6.64995297 -9.83191487 7.29478722 -11.25 7.9375 C-12.03890625 8.29714844 -12.8278125 8.65679687 -13.640625 9.02734375 C-15.75823698 9.90033279 -17.76669362 10.51338508 -20 11 C-20 11.66 -20 12.32 -20 13 C-21.8125 15.125 -21.8125 15.125 -24 17 C-24.99 17 -25.98 17 -27 17 C-27.33 18.32 -27.66 19.64 -28 21 C-28.5775 21.12375 -29.155 21.2475 -29.75 21.375 C-32.02612206 22.00725613 -33.90760206 22.91863468 -36 24 C-27.72285384 13.86049595 -14.09262695 0 0 0 Z " fill="#DBA745" transform="translate(220,180)"/>
<path d="M0 0 C1.01336426 -0.00531738 2.02672852 -0.01063477 3.07080078 -0.01611328 C9.23239144 0.04143394 14.72276911 0.76105186 20.6875 2.3125 C20.0275 2.6425 19.3675 2.9725 18.6875 3.3125 C18.3575 3.9725 18.0275 4.6325 17.6875 5.3125 C17.6875 4.6525 17.6875 3.9925 17.6875 3.3125 C12.86369198 3.2878481 8.03992033 3.26966307 3.21606445 3.25756836 C1.57380536 3.25252826 -0.06844923 3.24569622 -1.71069336 3.23706055 C-4.06625479 3.22498074 -6.42175709 3.21926861 -8.77734375 3.21484375 C-9.88516457 3.20710182 -9.88516457 3.20710182 -11.0153656 3.19920349 C-12.78148088 3.1990075 -14.54747146 3.25055281 -16.3125 3.3125 C-16.6425 3.6425 -16.9725 3.9725 -17.3125 4.3125 C-19.16141946 4.54613881 -21.01738031 4.72553635 -22.875 4.875 C-24.39287109 5.00068359 -24.39287109 5.00068359 -25.94140625 5.12890625 C-26.72386719 5.18949219 -27.50632812 5.25007812 -28.3125 5.3125 C-21.91749032 -1.08250968 -8.44210089 0.02198127 0 0 Z " fill="#391F05" transform="translate(302.3125,239.6875)"/>
<path d="M0 0 C9.48884067 0.75843309 19.9199892 7.99738215 27 14 C26.01 14.33 25.02 14.66 24 15 C22.30963442 14.04060332 20.64605826 13.03357147 19 12 C17.01548229 11.28856912 15.01797888 10.61008664 13 10 C13 9.01 13 8.02 13 7 C10.03 6.505 10.03 6.505 7 6 C7 5.01 7 4.02 7 3 C4.03 2.67 1.06 2.34 -2 2 C-1.34 1.34 -0.68 0.68 0 0 Z " fill="#DEAB45" transform="translate(269,179)"/>
<path d="M0 0 C1.98 0 3.96 0 6 0 C3.24067311 2.23763183 0.78201996 3.58189748 -2.5625 4.75 C-8.55986914 7.03811699 -13.70340235 10.41523049 -19 14 C-19.33 13.01 -19.66 12.02 -20 11 C-19.01 11 -18.02 11 -17 11 C-17 10.01 -17 9.02 -17 8 C-12.5 6.5 -12.5 6.5 -8 5 C-8 4.34 -8 3.68 -8 3 C-5.36 2.67 -2.72 2.34 0 2 C0 1.34 0 0.68 0 0 Z " fill="#D8AA46" transform="translate(268,244)"/>
<path d="M0 0 C0.66 0.33 1.32 0.66 2 1 C0.625 3 0.625 3 -1 5 C-1.66 5 -2.32 5 -3 5 C-3.66 6.98 -4.32 8.96 -5 11 C-5.5775 10.62875 -6.155 10.2575 -6.75 9.875 C-9 8.70833333 -9 8.70833333 -11.25 9.875 C-12.11625 10.431875 -12.11625 10.431875 -13 11 C-9.57933564 5.94336573 -5.08997609 3.16492103 0 0 Z " fill="#37240C" transform="translate(260,250)"/>
<path d="M0 0 C0 0.99 0 1.98 0 3 C-1.01578125 2.86722656 -2.0315625 2.73445312 -3.078125 2.59765625 C-11.37464723 1.52824586 -19.65352005 0.60069363 -28 0 C-28 -0.33 -28 -0.66 -28 -1 C-18.24068313 -2.21785742 -9.63305603 -1.6121712 0 0 Z " fill="#3A2003" transform="translate(268,175)"/>
<path d="M0 0 C0.66 0.33 1.32 0.66 2 1 C1.125 5.75 1.125 5.75 0 8 C-0.99 8 -1.98 8 -3 8 C-3.33 8.99 -3.66 9.98 -4 11 C-5.32 10.34 -6.64 9.68 -8 9 C-5.36 6.03 -2.72 3.06 0 0 Z " fill="#3C220F" transform="translate(245,261)"/>
<path d="M0 0 C1.98 0 3.96 0 6 0 C5.278125 0.70125 4.55625 1.4025 3.8125 2.125 C1.00176187 4.92770745 -1.49516226 7.92262792 -4 11 C-4.99 10.67 -5.98 10.34 -7 10 C-6.67 8.35 -6.34 6.7 -6 5 C-4.35 5 -2.7 5 -1 5 C-0.67 3.35 -0.34 1.7 0 0 Z " fill="#EAB141" transform="translate(242,259)"/>
<path d="M0 0 C0.33 0.66 0.66 1.32 1 2 C-0.8125 4 -0.8125 4 -3 6 C-3.99 6 -4.98 6 -6 6 C-6.33 7.32 -6.66 8.64 -7 10 C-7.5775 10.12375 -8.155 10.2475 -8.75 10.375 C-11.02612206 11.00725613 -12.90760206 11.91863468 -15 13 C-6.08300395 2.02766798 -6.08300395 2.02766798 0 0 Z " fill="#DEAE48" transform="translate(199,191)"/>
<path d="M0 0 C-4.32014788 2.30479354 -8.13161821 4.18860303 -13 5 C-13.680625 5.37125 -14.36125 5.7425 -15.0625 6.125 C-17.4619665 7.20863003 -18.57028208 6.8677564 -21 6 C-15.98360597 2.86475373 -11.76965854 1.2712807 -6 0 C-3.50907189 -1.24546405 -2.58919267 -0.7767578 0 0 Z " fill="#241107" transform="translate(202,275)"/>
<path d="M0 0 C0.33 0 0.66 0 1 0 C1.375 3.1875 1.375 3.1875 1 7 C-0.81188028 9.1403498 -2.65801167 10.38988302 -5 12 C-5.99 11.34 -6.98 10.68 -8 10 C-7.50628906 9.44570313 -7.01257813 8.89140625 -6.50390625 8.3203125 C-5.86324219 7.59585937 -5.22257812 6.87140625 -4.5625 6.125 C-3.92441406 5.40570313 -3.28632813 4.68640625 -2.62890625 3.9453125 C-0.94985535 2.09249509 -0.94985535 2.09249509 0 0 Z " fill="#362F2D" transform="translate(399,372)"/>
<path d="M0 0 C0.33 0 0.66 0 1 0 C1 2.31 1 4.62 1 7 C-0.32 7.33 -1.64 7.66 -3 8 C-3 8.66 -3 9.32 -3 10 C-5.3125 12.1875 -5.3125 12.1875 -8 14 C-8.99 13.67 -9.98 13.34 -11 13 C-8.43588448 10.43588448 -5.8732038 7.87896726 -3.25 5.375 C-0.80995326 3.13466888 -0.80995326 3.13466888 0 0 Z " fill="#161210" transform="translate(145,317)"/>
<path d="M0 0 C0.33 0 0.66 0 1 0 C0.50769231 7.38461538 0.50769231 7.38461538 -2.0625 10.5 C-2.701875 10.995 -3.34125 11.49 -4 12 C-4.99 11.34 -5.98 10.68 -7 10 C-5.85821872 8.33055479 -4.71147095 6.6645052 -3.5625 5 C-2.92441406 4.071875 -2.28632813 3.14375 -1.62890625 2.1875 C-1.09136719 1.465625 -0.55382812 0.74375 0 0 Z " fill="#DDB03A" transform="translate(183,204)"/>
<path d="M0 0 C0 1.65 0 3.3 0 5 C-2.31 5.66 -4.62 6.32 -7 7 C-7.33 6.01 -7.66 5.02 -8 4 C-5.29881977 1.17603885 -4.05589853 0 0 0 Z " fill="#351D11" transform="translate(269,247)"/>
<path d="M0 0 C1.33998047 0.06960937 1.33998047 0.06960937 2.70703125 0.140625 C3.60808594 0.17671875 4.50914062 0.2128125 5.4375 0.25 C6.46810547 0.31960937 6.46810547 0.31960937 7.51953125 0.390625 C7.51953125 1.710625 7.51953125 3.030625 7.51953125 4.390625 C3.22953125 4.390625 -1.06046875 4.390625 -5.48046875 4.390625 C-2.48046875 0.390625 -2.48046875 0.390625 0 0 Z " fill="#463E3C" transform="translate(300.48046875,251.609375)"/>
<path d="M0 0 C1.43861294 0.08746284 2.87597508 0.19565348 4.3125 0.3125 C5.11300781 0.37050781 5.91351563 0.42851562 6.73828125 0.48828125 C9.39660743 1.08973329 10.23443722 1.98591226 12 4 C12.66 4.33 13.32 4.66 14 5 C14.625 7.0625 14.625 7.0625 15 9 C11.69918209 7.38102741 8.47442567 5.64075691 5.25 3.875 C4.26515625 3.33617187 3.2803125 2.79734375 2.265625 2.2421875 C1.51796875 1.83226562 0.7703125 1.42234375 0 1 C0 0.67 0 0.34 0 0 Z " fill="#4B2B0B" transform="translate(277,181)"/>
<path d="M0 0 C0 0.33 0 0.66 0 1 C-0.95712891 1.09087891 -0.95712891 1.09087891 -1.93359375 1.18359375 C-2.75988281 1.26738281 -3.58617187 1.35117188 -4.4375 1.4375 C-5.67306641 1.55931641 -5.67306641 1.55931641 -6.93359375 1.68359375 C-8.98662025 1.78930815 -8.98662025 1.78930815 -10 3 C-11.84891946 3.23363881 -13.70488031 3.41303635 -15.5625 3.5625 C-17.08037109 3.68818359 -17.08037109 3.68818359 -18.62890625 3.81640625 C-19.41136719 3.87699219 -20.19382812 3.93757812 -21 4 C-18.28250267 1.28250267 -15.92648245 1.1151088 -12.1875 0.3125 C-10.96417969 0.04050781 -9.74085938 -0.23148438 -8.48046875 -0.51171875 C-5.23108391 -0.96758082 -3.12254804 -0.88620887 0 0 Z " fill="#482D05" transform="translate(295,241)"/>
<path d="M0 0 C4.39750672 0.50740462 6.86948922 3.08293314 10 6 C10 6.66 10 7.32 10 8 C10.66 8 11.32 8 12 8 C11.67 8.66 11.34 9.32 11 10 C8 10 8 10 6.2109375 8.3203125 C5.30214844 7.23363281 5.30214844 7.23363281 4.375 6.125 C3.76398438 5.40570313 3.15296875 4.68640625 2.5234375 3.9453125 C1 2 1 2 0 0 Z " fill="#3E2307" transform="translate(299,195)"/>
<path d="M0 0 C6.05537521 0.30276876 9.51483458 3.27754038 14 7 C13.01 7.33 12.02 7.66 11 8 C9.30963442 7.04060332 7.64605826 6.03357147 6 5 C4.01548229 4.28856912 2.01797888 3.61008664 0 3 C0 2.01 0 1.02 0 0 Z " fill="#EAB448" transform="translate(282,186)"/>
<path d="M0 0 C0.99 0.33 1.98 0.66 3 1 C3 4 3 4 1.6875 5.38671875 C0.125 6.59114583 -1.4375 7.79557292 -3 9 C-3.75 7.3125 -3.75 7.3125 -4 5 C-2.0625 2.25 -2.0625 2.25 0 0 Z " fill="#292321" transform="translate(181,296)"/>
<path d="M0 0 C9.25961538 9.00240385 9.25961538 9.00240385 10 14 C9.01 14 8.02 14 7 14 C6.5875 12.948125 6.175 11.89625 5.75 10.8125 C4.30779171 7.40364404 2.36434574 4.85352072 0 2 C0 1.34 0 0.68 0 0 Z " fill="#D2A144" transform="translate(305,202)"/>
<path d="M0 0 C1.98 0 3.96 0 6 0 C6.33 3.63 6.66 7.26 7 11 C4.42355713 8.42355713 3.31230641 6.96726521 1.8125 3.8125 C1.46832031 3.09707031 1.12414062 2.38164062 0.76953125 1.64453125 C0.51558594 1.10183594 0.26164062 0.55914062 0 0 Z " fill="#381E05" transform="translate(311,208)"/>
<path d="M0 0 C1.32 0.33 2.64 0.66 4 1 C0.04 3.64 -3.92 6.28 -8 9 C-8.33 8.34 -8.66 7.68 -9 7 C-6.67093383 3.50640074 -4.73524038 2.74841039 -1 1 C-0.67 0.67 -0.34 0.34 0 0 Z " fill="#3B1F05" transform="translate(202,185)"/>
<path d="M0 0 C1.16161779 2.86578759 0.9946154 4.01630163 0.00390625 7.015625 C-0.70958984 8.61664063 -0.70958984 8.61664063 -1.4375 10.25 C-1.91058594 11.32765625 -2.38367188 12.4053125 -2.87109375 13.515625 C-3.24363281 14.33546875 -3.61617187 15.1553125 -4 16 C-5.06340773 12.80263986 -4.96582104 11.1018975 -3.6875 8 C-3.40648437 7.3090625 -3.12546875 6.618125 -2.8359375 5.90625 C-1.95601739 3.8997032 -1.04383494 1.92707989 0 0 Z " fill="#E5B34E" transform="translate(175,216)"/>
<path d="M0 0 C0.66 0.33 1.32 0.66 2 1 C-1.63 4.63 -5.26 8.26 -9 12 C-9.66 11.67 -10.32 11.34 -11 11 C-10.04882866 9.8274869 -9.08882991 8.66212985 -8.125 7.5 C-7.32449219 6.52546875 -7.32449219 6.52546875 -6.5078125 5.53125 C-6.01023438 5.0259375 -5.51265625 4.520625 -5 4 C-4.34 4 -3.68 4 -3 4 C-3 3.34 -3 2.68 -3 2 C-2.01 1.34 -1.02 0.68 0 0 Z " fill="#D7D4D4" transform="translate(187,296)"/>
<path d="M0 0 C0.33 0.99 0.66 1.98 1 3 C1.99 2.01 2.98 1.02 4 0 C4.66 0.33 5.32 0.66 6 1 C5.01 3.64 4.02 6.28 3 9 C0.90250005 6.64031256 0.03094296 5.45383006 -0.1875 2.25 C-0.125625 1.5075 -0.06375 0.765 0 0 Z " fill="#392518" transform="translate(170,286)"/>
<path d="M0 0 C2.31 0 4.62 0 7 0 C7 1.32 7 2.64 7 4 C5.02 4.99 5.02 4.99 3 6 C2.01 5.34 1.02 4.68 0 4 C0 2.68 0 1.36 0 0 Z " fill="#292322" transform="translate(232,282)"/>
<path d="M0 0 C1.2065625 0.0309375 1.2065625 0.0309375 2.4375 0.0625 C-0.57697835 2.63325841 -2.92229771 3.58457066 -6.8125 4.25 C-8.15054687 4.48783203 -8.15054687 4.48783203 -9.515625 4.73046875 C-10.52882813 4.89482422 -10.52882813 4.89482422 -11.5625 5.0625 C-11.2325 4.0725 -10.9025 3.0825 -10.5625 2.0625 C-9.428125 1.918125 -8.29375 1.77375 -7.125 1.625 C-3.80350664 1.10055368 -3.09809271 0.07556324 0 0 Z " fill="#E6B348" transform="translate(285.5625,238.9375)"/>
<path d="M0 0 C2.64 0 5.28 0 8 0 C8 0.33 8 0.66 8 1 C9.65 1.33 11.3 1.66 13 2 C13 2.33 13 2.66 13 3 C9.04 3 5.08 3 1 3 C0.67 2.01 0.34 1.02 0 0 Z " fill="#413A39" transform="translate(211,283)"/>
<path d="M0 0 C-4.455 2.97 -4.455 2.97 -9 6 C-9.33 5.01 -9.66 4.02 -10 3 C-9.01 3 -8.02 3 -7 3 C-7 2.01 -7 1.02 -7 0 C-2.25 -1.125 -2.25 -1.125 0 0 Z " fill="#E2B144" transform="translate(258,252)"/>
<path d="M0 0 C0.66 0.66 1.32 1.32 2 2 C2.66 1.67 3.32 1.34 4 1 C3.34 4.3 2.68 7.6 2 11 C0.19308322 7.38616645 -0.56157766 4.94580104 -1 1 C-0.67 0.67 -0.34 0.34 0 0 Z " fill="#312828" transform="translate(164,325)"/>
<path d="M0 0 C1.64826111 2.96687001 2.44271087 5.65626525 3 9 C2.01 9.33 1.02 9.66 0 10 C-0.66 7.03 -1.32 4.06 -2 1 C-1.34 0.67 -0.68 0.34 0 0 Z " fill="#3D250D" transform="translate(324,228)"/>
<path d="M0 0 C2.05883923 4.11767846 2.96165128 7.54993405 4 12 C2.68 11.34 1.36 10.68 0 10 C0 6.7 0 3.4 0 0 Z " fill="#482806" transform="translate(166,274)"/>
<path d="M0 0 C0.99 0.33 1.98 0.66 3 1 C3 1.66 3 2.32 3 3 C-1.38461538 6 -1.38461538 6 -4 6 C-2.25 1.125 -2.25 1.125 0 0 Z " fill="#312827" transform="translate(194,288)"/>
<path d="M0 0 C0.66 0.33 1.32 0.66 2 1 C-0.25 3.5625 -0.25 3.5625 -3 6 C-4.32 5.67 -5.64 5.34 -7 5 C-4.69 3.35 -2.38 1.7 0 0 Z " fill="#4C3209" transform="translate(260,250)"/>
<path d="M0 0 C0.93065133 2.60582371 1.14917407 3.64198224 0.0625 6.25 C-0.4634375 7.11625 -0.4634375 7.11625 -1 8 C-2.32 7.34 -3.64 6.68 -5 6 C-3.35 4.02 -1.7 2.04 0 0 Z " fill="#472C0C" transform="translate(242,264)"/>
<path d="M0 0 C3.3 0 6.6 0 10 0 C10.33 0.66 10.66 1.32 11 2 C6.58937864 3.0257259 4.07369424 3.03684712 0 1 C0 0.67 0 0.34 0 0 Z " fill="#423B3B" transform="translate(325,260)"/>
<path d="M0 0 C0.99 0.33 1.98 0.66 3 1 C0.03 4.96 0.03 4.96 -3 9 C-3.66 7.68 -4.32 6.36 -5 5 C-4.01 5 -3.02 5 -2 5 C-1.7834375 4.0409375 -1.7834375 4.0409375 -1.5625 3.0625 C-1 1 -1 1 0 0 Z " fill="#3A1F02" transform="translate(182,202)"/>
<path d="M0 0 C0.99 0 1.98 0 3 0 C3.33 2.64 3.66 5.28 4 8 C3.01 8 2.02 8 1 8 C0.67 5.36 0.34 2.72 0 0 Z " fill="#1B1211" transform="translate(161,328)"/>
<path d="M0 0 C0.33 0.66 0.66 1.32 1 2 C1.99 2.33 2.98 2.66 4 3 C3.34 4.32 2.68 5.64 2 7 C0 5.625 0 5.625 -2 4 C-2 3.34 -2 2.68 -2 2 C-1.34 2 -0.68 2 0 2 C0 1.34 0 0.68 0 0 Z " fill="#292020" transform="translate(171,305)"/>
<path d="M0 0 C0.66 0.33 1.32 0.66 2 1 C0.02579865 3.52259061 -0.96745642 3.9929808 -4.1875 4.6875 C-5.5796875 4.8421875 -5.5796875 4.8421875 -7 5 C-4.88437775 2.67281553 -2.94982021 1.14186589 0 0 Z " fill="#4E3009" transform="translate(188,277)"/>
<path d="M0 0 C0 0.66 0 1.32 0 2 C-2.31 2.66 -4.62 3.32 -7 4 C-7.33 3.01 -7.66 2.02 -8 1 C-5.29120665 -0.35439668 -2.99066732 -0.06501451 0 0 Z " fill="#261607" transform="translate(278,245)"/>
<path d="M0 0 C1.32 0 2.64 0 4 0 C3.34 1.32 2.68 2.64 2 4 C1.01 4 0.02 4 -1 4 C-1.33 4.66 -1.66 5.32 -2 6 C-1.125 1.125 -1.125 1.125 0 0 Z " fill="#35220A" transform="translate(170,218)"/>
<path d="M0 0 C0.66 0.33 1.32 0.66 2 1 C0.875 2.9375 0.875 2.9375 -1 5 C-4.1875 5.75 -4.1875 5.75 -7 6 C-4.74259377 3.66475218 -2.7194239 1.81294927 0 0 Z " fill="#CFA141" transform="translate(204,186)"/>
<path d="M0 0 C1.32 0.66 2.64 1.32 4 2 C2.02 3.32 0.04 4.64 -2 6 C-2.33 4.68 -2.66 3.36 -3 2 C-2.01 1.34 -1.02 0.68 0 0 Z " fill="#2B2422" transform="translate(259,266)"/>
<path d="M0 0 C2.31 0.33 4.62 0.66 7 1 C6.01 2.485 6.01 2.485 5 4 C3.35 3.67 1.7 3.34 0 3 C0 2.01 0 1.02 0 0 Z " fill="#2B2623" transform="translate(203,392)"/>
<path d="M0 0 C0.99 0.33 1.98 0.66 3 1 C3 2.65 3 4.3 3 6 C1.68 6 0.36 6 -1 6 C-0.67 4.02 -0.34 2.04 0 0 Z " fill="#423B3B" transform="translate(403,362)"/>
<path d="M0 0 C0.33 1.32 0.66 2.64 1 4 C-0.65 5.32 -2.3 6.64 -4 8 C-4.66 7.67 -5.32 7.34 -6 7 C-4.02 4.69 -2.04 2.38 0 0 Z " fill="#D9D5D3" transform="translate(251,278)"/>
<path d="M0 0 C1.32 0.66 2.64 1.32 4 2 C-0.95 3.485 -0.95 3.485 -6 5 C-5.67 4.01 -5.34 3.02 -5 2 C-3.35 2 -1.7 2 0 2 C0 1.34 0 0.68 0 0 Z " fill="#464040" transform="translate(278,257)"/>
<path d="M0 0 C0.33 0 0.66 0 1 0 C1 1.65 1 3.3 1 5 C-0.65 5.33 -2.3 5.66 -4 6 C-2.69593116 3.98079663 -1.36176581 1.98075027 0 0 Z " fill="#D2A23D" transform="translate(183,204)"/>
<path d="M0 0 C0.99 0.66 1.98 1.32 3 2 C-3.625 2.25 -3.625 2.25 -7 0 C-4.28569464 -1.35715268 -2.88661718 -0.77445827 0 0 Z " fill="#D1A041" transform="translate(274,180)"/>
<path d="M0 0 C2.9375 1.25 2.9375 1.25 6 3 C6.875 5.1875 6.875 5.1875 7 7 C6.34 7 5.68 7 5 7 C4.34 6.01 3.68 5.02 3 4 C2.01 3.67 1.02 3.34 0 3 C0 2.01 0 1.02 0 0 Z " fill="#110B0C" transform="translate(303,177)"/>
</svg>
